<?xml version="1.0" standalone="no"?>
<!DOCTYPE svg PUBLIC "-//W3C//DTD SVG 1.1//EN" "http://www.w3.org/Graphics/SVG/1.1/DTD/svg11.dtd" >
<svg>
<metadata>
Created by FontForge 20090622 at Tue Oct 11 04:48:16 2016
 By ffonts
&#194;&#169;2014 Jeremy Dixon
</metadata>
<defs>
<font id="BlackCoffeeRegular-Bold" horiz-adv-x="710" >
  <font-face 
    font-family="Black Coffee Regular"
    font-weight="400"
    font-stretch="normal"
    units-per-em="2048"
    panose-1="0 0 5 4 0 0 0 0 0 4"
    ascent="1565"
    descent="-483"
    x-height="1433"
    cap-height="1455"
    bbox="-8 -436 1192 1942"
    underline-thickness="109"
    underline-position="-167"
    unicode-range="U+0020-U+201D"
  />
<missing-glyph horiz-adv-x="1240" 
d="M100 -360v1804h1026v-1804h-1026zM217 -248h795v1577h-795v-1577z" />
    <glyph glyph-name=".notdef" horiz-adv-x="1240" 
d="M100 -360v1804h1026v-1804h-1026zM217 -248h795v1577h-795v-1577z" />
    <glyph glyph-name="controlBS" horiz-adv-x="0" 
 />
    <glyph glyph-name="controlHT" horiz-adv-x="600" 
 />
    <glyph glyph-name="exclam" unicode="!" horiz-adv-x="298" 
d="M0 1112q0 123 1 190t9 99.5t25.5 40t50.5 12.5h51.5h33.5t11 -32.5t2 -77.5q0 -78 -4.5 -215l-9 -275l-8 -247t-3.5 -131q-9 -55 -17 -62.5t-44 1.5q-28 0 -61 12q-5 4 -10 72t-9.5 169t-9 219.5zM25 24q-9 9 -13.5 35t-4.5 56t4.5 56.5t13.5 35.5q18 18 48.5 16.5
t48.5 -28.5q13 -15 20 -40t8.5 -51.5t-2.5 -48.5t-13 -31q-5 -9 -21.5 -13.5t-34.5 -4.5t-34 4.5t-20 13.5z" />
    <glyph glyph-name="A" unicode="A" horiz-adv-x="809" 
d="M309 1410q0 8 13.5 15t30.5 7q33 16 67 17.5t43 -6.5q8 -17 26 -91.5t37.5 -167.5t36 -184.5t21.5 -140.5q0 -33 19 -121t36 -187q20 -87 36 -169.5t26 -149.5t14 -114t1 -63q-5 -9 -24.5 -18.5t-43.5 -17t-45.5 -10.5t-29.5 2q-9 16 -22.5 72.5t-21.5 147.5
q0 33 -12.5 90.5t-20.5 107.5q-13 49 -21.5 76t-20.5 39t-33 15t-57 3q-38 0 -58.5 -2.5t-32.5 -13t-17.5 -32.5t-13.5 -63l-22.5 -121.5t-21.5 -120.5q-17 -99 -30.5 -126.5t-46.5 -27.5h-28h-27q-42 -9 -51.5 14.5t7.5 106.5q8 66 21.5 145t30 157t34.5 149.5t35 121.5
l29 107.5l26.5 105l29.5 120l37 152.5q8 66 21.5 116.5t22.5 59.5zM408 903q0 41 -5.5 85.5t-5.5 69.5q0 16 -11 33q-5 0 -16.5 -41t-23.5 -94l-23 -103.5t-14 -70.5q0 -25 6.5 -29t48.5 -4q41 -9 48 -6t7 28q0 16 -5.5 53t-5.5 79z" />
    <glyph glyph-name="B" unicode="B" horiz-adv-x="840" 
d="M12 1373q17 26 57.5 49.5t93.5 32.5h78.5h96.5q105 -9 168 -29.5t99 -63.5q34 -40 51.5 -99t18.5 -125t-13.5 -135.5t-44.5 -129.5l-47 -70q0 -9 14.5 -26.5t32.5 -43.5q43 -44 70.5 -93.5t45.5 -127.5q9 -79 1.5 -153t-24.5 -126q-53 -105 -191 -169t-321 -64
q-36 0 -55.5 0.5t-32.5 3.5t-24 10t-28 21q-14 17 -21.5 31t-11.5 44t-6.5 88t-6.5 163q-5 144 -7 316.5t-2 324t2 257t7 114.5zM501 1106q9 60 -7.5 102t-51.5 60q-14 4 -54 6.5t-83.5 2.5t-79 -2.5t-39.5 -6.5q-5 -5 -7 -61t-2 -123.5t2 -127.5t7 -72q9 -27 29 -28t99 17
q96 17 137 72.5t50 160.5zM512 593q-9 8 -29.5 18t-45.5 20t-51.5 18.5t-47.5 13.5q-27 0 -57.5 6t-47.5 6h-35v-79v-166v-119.5t1 -69.5t3.5 -36t7.5 -19q12 -9 20.5 -13.5t21.5 -3.5t35 8t62 21q113 35 167 82.5t54 126.5q0 17 -6 45t-15 56t-19 52t-18 33z" />
    <glyph glyph-name="C" unicode="C" horiz-adv-x="840" 
d="M246 1365q21 16 39.5 27t43.5 18t61 12t91 10q71 8 110.5 11t56.5 -3t15 -24t-14 -51q-9 -51 -32.5 -64.5t-90.5 -13.5q-76 0 -111 -13t-68 -55q-42 -42 -64.5 -96.5t-47.5 -138.5q-26 -97 -29 -199.5t14 -200t52 -185t86 -153.5q42 -51 95 -66.5t129 10.5q50 16 80.5 13
t64.5 -36q16 -9 30.5 -22.5t14.5 -21.5q0 -9 -35 -26t-77 -42l-62.5 -28.5t-42 -15.5t-37.5 -5t-48 5q-68 0 -115.5 24.5t-97.5 75.5q-68 67 -122 187.5t-79 271.5q-21 108 -16.5 223.5t30.5 223t71 198t105 150.5z" />
    <glyph glyph-name="D" unicode="D" horiz-adv-x="851" 
d="M0 728q0 248 1 384.5t7 202.5t19 82.5t38 25.5q24 12 71 12.5t103 -8t114 -24t103 -35.5q146 -66 212.5 -204t58.5 -382q0 -66 -1.5 -135t-9.5 -93q-13 -74 -42.5 -145.5t-71.5 -133.5t-93 -111t-108 -77q-25 -13 -66.5 -28t-84 -27t-79.5 -19t-52 -2q-25 0 -53.5 21.5
t-44.5 54.5q-5 12 -7.5 46.5t-4.5 106.5t-4 190zM575 771q0 114 -12 193.5t-41 134t-77 90t-120 60.5q-129 33 -162 0q-5 -9 -5 -170t3 -352.5t8.5 -352t14.5 -168.5q8 -9 24.5 -6t73.5 28q73 24 128.5 71.5t88.5 113.5q24 44 38.5 78t23 71.5t11.5 86t3 122.5z" />
    <glyph glyph-name="E" unicode="E" horiz-adv-x="686" 
d="M0 1311q0 33 21 74.5t46 58.5q12 3 26 5.5t40.5 3.5t68.5 1.5t109 0.5q108 0 159.5 -1.5t51.5 -9.5q8 0 15.5 -21.5t7.5 -45.5q3 -30 2.5 -46t-17.5 -23t-55 -7.5t-108 -0.5q-100 0 -139 -7t-39 -15q-9 -9 -10 -44t-1 -101q0 -46 1.5 -71t11.5 -36.5t33 -13t65 -1.5
q50 8 81.5 2.5t40.5 -13.5q8 -5 12 -25t4 -43t-4 -42.5t-12 -22.5q-9 -9 -44.5 -16t-77.5 -7t-65 -5.5t-33 -35.5t-11.5 -95.5t-1.5 -185.5v-126t0.5 -104t3 -72.5t7.5 -30.5q0 -9 48.5 -10t140.5 -1q70 0 108.5 -1.5t56.5 -7.5t21 -20t3 -38q0 -42 -3 -61.5t-19 -27.5
q-128 -11 -211 -11q-72 -5 -112.5 -7t-64.5 -1t-38 5.5t-30 13.5q-25 8 -40 22t-15 23q-9 16 -15.5 171.5t-6.5 439.5q0 120 -2 230.5t-4.5 197.5l-4 141.5t-1.5 63.5z" />
    <glyph glyph-name="F" unicode="F" horiz-adv-x="606" 
d="M65 1379q8 16 41 32t58 33q16 3 66 3.5t105.5 -2.5t101.5 -8.5t55 -13.5q8 -5 12 -28t4 -50t-4 -50t-12 -26h-142q-45 0 -71.5 -0.5t-40 -2.5t-16.5 -6t-3 -12v-46v-86q3 -45 7 -69.5t15.5 -36t33.5 -13t64 -1.5q57 8 84 2.5t36 -13.5q8 -5 12 -26.5t4 -45.5t-4 -45.5
t-12 -24.5q0 -9 -28.5 -15.5t-69.5 -6.5h-88t-43 -14.5t-16 -51t-6 -109.5q-5 -103 -13 -210.5t-17 -197t-18.5 -149t-17.5 -67.5q-5 -9 -24.5 -13t-42 -4t-42 4t-22.5 13q-9 8 -9 61.5t9 135.5q8 66 16 152t17 144q0 28 1 81t3.5 119t4.5 141.5t2 150.5q0 73 -0.5 140.5
t0 118.5t3 82t7.5 31z" />
    <glyph glyph-name="G" unicode="G" horiz-adv-x="918" 
d="M127 1252q47 85 103.5 122t161.5 56q51 9 103.5 13.5t95 4.5t71 -4.5t34.5 -13.5q0 -15 -2.5 -35t-6 -39t-8 -34t-8.5 -19q0 -10 -41 -17.5t-98 -7.5q-57 -6 -97 -11.5t-67 -16t-45 -28t-32 -45.5q-24 -39 -41 -83.5t-27.5 -104.5t-15 -137.5t-4.5 -181.5
q0 -86 0.5 -137.5t3.5 -84.5t11 -56t23 -51q14 -43 27.5 -70.5t36 -44t58.5 -24.5t93 -12q95 -10 124.5 2.5t39.5 60.5q18 51 32 121t20 135.5t3 114.5t-17 59q-10 9 -39.5 15.5t-86.5 -2.5h-114q-10 9 -13 30t-0.5 45t9 45.5t16.5 31.5q9 9 49 17t116 8q57 4 88 5.5
t49.5 -1.5t31.5 -13.5t33 -28.5q14 -15 21.5 -26.5t12.5 -27t8 -38.5t9 -60q4 -57 1.5 -114t-13.5 -121t-30 -139.5t-47 -169.5q-10 -57 -22.5 -74.5t-40.5 -26.5q-48 -19 -134.5 -25.5t-181.5 12.5q-96 18 -149.5 42t-91.5 72q-34 42 -60 112t-41 160t-19 197.5t6 226.5
q18 151 40.5 250.5t61.5 166.5z" />
    <glyph glyph-name="H" unicode="H" horiz-adv-x="700" 
d="M12 1072q-5 13 -3.5 65.5t6 112.5t11 112.5t11.5 67.5q0 9 17 15t45 -3q36 -5 55.5 -10.5t28 -24t7.5 -56t-5 -106.5q0 -75 1.5 -130t10.5 -55h111q41 4 63.5 9t33 22.5t12.5 52.5t2 101q0 92 8 134t17 51q9 4 29.5 6t42 1t40 -5.5t23.5 -13.5q9 -9 12.5 -177.5
t12.5 -501.5v-262.5v-216v-199.5q-5 -10 -23.5 -20.5t-40.5 -18.5t-42.5 -11.5t-29.5 1.5q-10 4 -17 20.5t-11.5 66.5t-6 143t-1.5 251q-5 152 -9.5 234t-13.5 119t-26.5 41t-49.5 0q-60 -5 -89 -7t-41 -37t-13 -119.5t-5 -255.5q0 -149 -1.5 -229.5t-8.5 -117t-22 -42
t-42 -5.5q-28 0 -43.5 7t-23.5 52t-11.5 142.5t-7.5 278.5q0 96 -2.5 185.5t-5 160t-4 116.5t-1.5 56z" />
    <glyph glyph-name="I" unicode="I" horiz-adv-x="346" 
d="M33 1156q8 136 10 197t11 70q8 15 21.5 23.5t53.5 8.5q32 0 54.5 -6.5t31.5 -14.5q3 -9 3 -60.5t-3 -129.5t-9 -174t-13 -192q0 -29 -2 -75.5l-4.5 -103t-3.5 -118t-1 -121.5q-5 -89 -9 -148t-8 -98.5t-8 -66t-7 -50.5q-9 -33 -21.5 -55.5t-20.5 -30.5q-16 -9 -43.5 -6
t-42.5 27q-9 7 -13 15t-6 32t-2 72.5v137.5q0 48 -0.5 105.5t0 114.5t3 109t7.5 88l7 95t7 117t5.5 123t2.5 115z" />
    <glyph glyph-name="J" unicode="J" horiz-adv-x="582" 
d="M293 1138v109.5v93.5v90q4 8 26.5 12.5t49 4.5t49.5 -4.5t28 -12.5q8 -9 14.5 -120t9.5 -255t3 -287.5t-4 -217.5q-5 -75 -10 -128.5t-11.5 -92.5t-15.5 -70t-21 -61q-36 -80 -124 -129t-193 -58q-53 -9 -72 10t-10 72q0 52 8.5 68.5t61.5 25.5q52 17 78.5 30t62.5 40
q12 12 21.5 22.5t16 25t11.5 36t10 57.5q17 96 18.5 281t-7.5 458z" />
    <glyph glyph-name="K" unicode="K" horiz-adv-x="852" 
d="M23 1141q0 113 6 197.5t6 93.5q4 8 28 12.5t52.5 4.5t53 -4.5t29.5 -12.5q0 -9 5.5 -70t5.5 -139v-175q4 0 25 18.5t47 44.5l51.5 54t39.5 46q17 17 40.5 47.5t41.5 57.5l37.5 39t20.5 31q9 9 23.5 10t23.5 1q17 0 37 -6t37.5 -15t29.5 -19t12 -18q4 -5 -7.5 -28
t-29.5 -51.5t-40 -56t-39 -39.5q-9 -9 -23.5 -30.5t-23.5 -38.5q-18 -18 -42.5 -48.5t-50.5 -56.5q-18 -22 -27.5 -35.5t-11.5 -27t2.5 -30.5t13.5 -47q35 -114 81 -214.5t82 -169.5l65.5 -123.5l55.5 -112.5t38.5 -88t14.5 -49q0 -36 -7.5 -42.5t-50.5 -15.5
q-27 -9 -44 -10t-26 -1q-18 9 -42.5 55.5t-50.5 107.5q-18 26 -35.5 56.5t-32.5 60l-27.5 54t-20.5 38.5l-66 145t-74 181q-18 43 -24 47.5t-23 -12.5q-9 -9 -14 -22.5t-8 -47t-5.5 -97l-6.5 -171.5l-8 -205t-6 -121.5t-8 -60t-13 -20.5q-9 -9 -32.5 -2t-49.5 25
q-22 12 -34 23t-17.5 36t-6 73t-0.5 136q0 52 1.5 109t4.5 111t7.5 102.5t9.5 84.5v79.5v108.5v122.5v120.5z" />
    <glyph glyph-name="L" unicode="L" horiz-adv-x="631" 
d="M12 1432q9 0 25.5 6t43.5 6q17 9 33.5 10t25.5 1q14 -2 23 -11q8 -9 14.5 -103t9.5 -237t3 -317t-4 -344q0 -140 1.5 -215.5t10.5 -75.5t48 7l92 16q65 12 102 17.5t58 1t30.5 -20t18.5 -45.5q9 -36 15 -52.5t-3 -16.5q-5 -9 -66 -19.5t-139.5 -19.5t-156 -14.5
t-116.5 -5.5h-69q-5 8 -7 231t-2 488t2 486.5t7 226.5z" />
    <glyph glyph-name="M" unicode="M" horiz-adv-x="1081" 
d="M26 1059l14.5 182.5t10 107t10.5 55t16 26.5q9 9 28.5 14t42.5 5t45 -5t37 -14q9 -6 41 -103t71 -233l79 -285.5t64 -259.5q9 -67 24 -118.5t15 -60.5q9 -48 21.5 1.5t41.5 241.5q9 52 20.5 111l22 115.5l19.5 104l15 77.5q19 66 35 135t16 108q0 28 8 60t18 42
q9 9 32.5 15.5t48 9t45.5 -0.5t27 -12q4 0 8.5 -24.5t8 -65.5t6 -93.5t2.5 -109.5l8.5 -132t9.5 -135l9.5 -123t10.5 -95q4 -34 8.5 -82t8 -101t6.5 -105.5t3 -94.5q0 -72 -1 -111t-7 -57t-19 -20.5t-37 -2.5q-29 0 -76 12q-10 9 -20 68.5t-19 136.5q0 38 -2 79t-4.5 79
t-4 70t-1.5 52q-10 66 -15 63.5t-24 -88.5l-37 -123l-45 -147.5l-42.5 -130t-28.5 -71.5q-6 -10 -27 -15t-45.5 -5t-48 5t-32.5 15q-20 19 -42 105l-60 239q-6 33 -15 71.5l-18 77.5t-18 73.5t-13 58.5q-34 143 -54.5 211t-31 53.5t-13.5 -114t-3 -290.5q0 -211 -2 -312
t-11 -110h-35.5h-53.5q-24 0 -37.5 3t-21 22t-11 61t-7.5 119v164t2.5 165t8 192t15.5 244z" />
    <glyph glyph-name="N" unicode="N" horiz-adv-x="956" 
d="M646 963v220.5t0.5 146.5t3 83.5t7.5 31.5q0 8 21.5 9t54.5 1t49.5 -1t16.5 -9q8 -17 15 -94t7 -191v-132.5t0.5 -168.5t3 -185t7.5 -181v-427q-9 -13 -29 -25t-44 -19t-46 -8t-34 8q-9 3 -28.5 35.5t-45 85t-55 120t-57.5 142.5q-17 49 -46 112t-53 96
q-21 40 -54.5 96.5l-66.5 107.5l-58.5 87.5t-28.5 36.5q-17 8 -18 -16.5t8 -114.5q3 -132 6.5 -254.5t5.5 -218t1.5 -154.5t-3.5 -62q-9 -9 -29 -13t-42.5 -4t-42.5 4t-28 13q-17 16 -25 205t-8 412.5t8 412.5t25 206q8 8 24.5 15t41.5 7q49 8 74.5 -10t34.5 -67
q12 -45 25.5 -83.5t36.5 -82.5t57.5 -100.5t88.5 -137.5q28 -42 57.5 -91l56.5 -98t48.5 -94t34.5 -78q8 -17 22 -44q3 3 5.5 41.5t2.5 102t-2.5 147.5z" />
    <glyph glyph-name="O" unicode="O" horiz-adv-x="831" 
d="M21 1131q31 117 79.5 189t119.5 104q39 11 87.5 11t96.5 -11t91 -32t71 -52q39 -32 70 -88t55 -142q7 -28 11 -52t6.5 -62.5t3 -99.5t0.5 -163q0 -95 -0.5 -158.5t-3 -108t-6.5 -74.5t-11 -57q-24 -118 -72.5 -191t-126.5 -112q-24 -9 -64 -14.5t-82 -8t-79.5 0
t-56.5 11.5q-71 39 -114.5 105.5t-74.5 177.5q-9 27 -13 51.5t-6 66.5t-2 112.5v188.5v177.5t2 111.5t6 69t13 50zM513 1131q-16 47 -56.5 87.5t-79.5 48.5q-48 7 -80.5 4.5t-55.5 -25.5q-28 -32 -46.5 -77.5t-28 -112t-11.5 -158.5t2 -217q0 -102 2 -170.5t8 -115.5
t16.5 -79.5t26.5 -63.5q23 -39 55.5 -61.5t80.5 -22.5q63 7 104.5 36t73.5 100q3 19 7 41t7.5 55t8 82.5t8.5 124.5q7 204 -2 332.5t-40 191.5z" />
    <glyph glyph-name="P" unicode="P" horiz-adv-x="676" 
d="M60 1407q18 9 33 18t15 18q18 4 47 4.5t62 -2t67.5 -6.5t61.5 -8q62 -18 113 -52t78 -79q9 -14 13.5 -29.5t7 -40t3 -62.5t0.5 -95q4 -72 4 -121.5t-6 -82.5t-17 -54.5t-29 -39.5q-27 -36 -73.5 -55t-117.5 -28q-36 -9 -61 -12t-34 -12q-9 -18 -16.5 -75t-7.5 -200
q-9 -103 -16.5 -174.5t-14 -117t-13 -69t-15.5 -32.5q-9 0 -31.5 1.5t-76.5 10.5q-9 0 -22.5 7.5t-13.5 16.5t1.5 56.5t10.5 110.5q4 39 6.5 94.5t3.5 133.5t1.5 183.5t0.5 244.5q4 192 7 296.5t6 155.5t8.5 66.5t14.5 29.5zM382 1204q-9 18 -32.5 28.5t-50.5 19.5t-60 24
l-24 -24q-5 -9 -9 -20t-6.5 -31.5t-2 -53.5t5.5 -86q4 -77 9.5 -120t15.5 -63t27 -22t44 3q35 4 54.5 10t28.5 24t10.5 51.5t1.5 92.5q0 62 -6 110t-6 57z" />
    <glyph glyph-name="Q" unicode="Q" horiz-adv-x="825" 
d="M32 1052q80 332 319 393q39 8 99 0t92 -32q43 -33 73.5 -80.5t49 -118.5t27.5 -168t9 -228q8 -216 -14.5 -342t-70.5 -189q-24 -32 -22.5 -41t33.5 -33q15 -16 34.5 -30.5t28.5 -22.5q15 -9 17 -22.5t-6 -52.5q-9 -64 -34 -57t-104 79l-52.5 42t-33.5 21t-25.5 4.5
t-26.5 -4.5q-40 -9 -97 3.5t-105 28.5q-128 63 -191 287q-12 36 -18 111.5t-6 161t6 165.5t18 125zM552 818q0 111 -5 190t-16 133.5t-29 88.5t-45 55q-24 15 -39 17t-46 -6q-112 -40 -167.5 -174.5t-55.5 -356.5q0 -159 35.5 -267t91.5 -147q12 -9 21 -13.5t23 -5.5t36 1
t58 7q39 8 54 14.5t31 38.5q31 48 46 145t7 280z" />
    <glyph glyph-name="R" unicode="R" 
d="M35 1398q9 17 29 31.5t29 14.5q17 4 63 4.5t98 -2t98.5 -6t64.5 -7.5q78 -18 132.5 -80t63.5 -140q4 -22 0.5 -54.5t-12.5 -67t-21.5 -67t-24.5 -53.5q-18 -27 -56.5 -58.5t-81.5 -57.5q-9 -9 -5 -22t39 -47q17 -18 38.5 -48t30.5 -56q17 -31 33.5 -96t30.5 -145
t24.5 -166t15.5 -159q0 -39 -1.5 -60.5t-8 -31t-20.5 -11t-39 -1.5q-31 -5 -48 -4t-26.5 22t-15.5 68t-14 134q-14 117 -28 198t-33.5 138t-46 97t-65.5 75q-44 43 -65.5 47t-38.5 -13q-9 -9 -16 -97t-7 -261q0 -130 -1.5 -200.5t-8 -103t-20.5 -37.5t-39 -5q-27 0 -41 1
t-21.5 7t-11 20t-7.5 41v69.5v145v199v233.5v327.5t3 172.5t10 75.5t21 36.5zM451 1213q-9 17 -20.5 28.5t-37.5 29.5q-18 4 -53 7.5t-71.5 6t-67 2t-38.5 -4.5v-49.5v-100.5q0 -66 1 -100.5t10 -49t27.5 -12t53.5 11.5q51 9 97.5 31.5t64.5 49.5q8 8 14 27.5t10.5 42
t7 44.5t2.5 36z" />
    <glyph glyph-name="S" unicode="S" horiz-adv-x="734" 
d="M79 1197q16 92 59.5 150.5t119.5 84.5q25 16 89 16t123 -16q67 -17 80 -39t-12 -72q-26 -42 -48 -52t-64 7q-34 8 -66.5 6.5t-57.5 -17.5q-13 -5 -27 -20.5t-25.5 -36.5t-18.5 -44.5t-7 -44.5q0 -51 51.5 -133.5t127.5 -157.5q16 -17 47 -53.5t65 -69.5q33 -47 56 -86.5
t36.5 -80.5t18 -87t1.5 -104q0 -101 -25.5 -158.5t-75.5 -99.5q-18 -18 -49.5 -32.5t-67.5 -26t-73.5 -19.5t-66.5 -11q-18 0 -43 5.5t-51.5 14.5t-49.5 21.5t-35 25.5q-13 8 -29 27t-28.5 40t-19.5 39.5t-2 27.5q3 12 28 20t52 10t48 -2.5t18 -16.5q0 -5 12.5 -10.5
t32.5 -11t44 -8.5t45 -3q33 -9 71 9.5t64 35.5q42 42 44.5 122.5t-22.5 156.5l-35 46l-57.5 73l-62 74.5l-46.5 53.5q-13 12 -31 33.5t-36 45.5t-33.5 47.5t-23.5 41.5q-42 75 -51.5 135t7.5 144z" />
    <glyph glyph-name="T" unicode="T" horiz-adv-x="811" 
d="M29 1418q3 0 19.5 1.5t54.5 5.5t102 10l163 15h73.5h123.5q61 3 94.5 2.5t48.5 -9.5t18 -28t3 -52q0 -30 -2.5 -45.5t-14.5 -24t-39 -12t-75 -6.5q-42 -5 -64 -11t-33.5 -28t-15.5 -68.5t-7 -132.5q-5 -50 -7.5 -122.5t-3 -156t-0.5 -170v-164.5q0 -205 -1.5 -290
t-9.5 -93q-5 -9 -25 -15t-44.5 -9t-48 -3t-35.5 5q-5 3 -7.5 25t-3 85t-0.5 177.5v303.5q0 114 1 221t3.5 191t4.5 138t2 63q3 16 3 24.5t-11.5 11.5t-38 1t-74.5 -5q-58 -5 -89.5 -4t-46.5 10t-20 29t-8 53q-9 41 -3.5 54.5t14.5 22.5z" />
    <glyph glyph-name="U" unicode="U" horiz-adv-x="875" 
d="M0 881q3 188 5.5 295t5.5 162t7 72t12 25q15 15 59 15t75 -15q3 -4 5 -17t4 -67.5t4.5 -168.5t6.5 -321v-327t2 -172t6.5 -74t12.5 -32q22 -35 64 -54t88 -22t88.5 11t66.5 45q15 18 24.5 49t14.5 89.5t5 153t-3 241.5q0 76 -2 154t-4 147t-3 124.5t-1 86.5
q-4 61 -3 95.5t10 51t29.5 18.5t55.5 -1q23 0 43.5 -7t28.5 -14q10 -79 10 -133q0 -27 1.5 -66t4.5 -82t6.5 -87t7.5 -82q3 -89 3.5 -196.5t-2.5 -207t-8.5 -179.5t-12.5 -114q-31 -147 -115.5 -211t-222.5 -56q-169 7 -262.5 76.5t-116.5 200.5v181.5v412.5z" />
    <glyph glyph-name="V" unicode="V" horiz-adv-x="880" 
d="M11 1412q26 1 42 10q15 8 37 9.5t38 1.5q15 0 23 -1.5t17.5 -23.5t26 -74.5l49.5 -155.5q24 -72 64 -218l96 -345q15 -64 42 -148q8 -9 17.5 19t25.5 140q7 31 15 75l17 94t19.5 102.5t22.5 100.5l29 178.5t14 107.5q8 55 25 70t81 15q63 0 76 -16t-2 -79l-35.5 -138.5
l-38 -160l-35.5 -159.5l-29 -137q-9 -36 -18.5 -80.5t-20.5 -90l-22.5 -89.5t-23.5 -80l-30.5 -140.5t-22.5 -92.5q0 -24 -6.5 -50.5t-14.5 -34.5q-16 -16 -63 -16t-86 16q-16 7 -25 14.5t-14 30.5t-8 69t-6 130q-9 71 -24 153.5t-42 189.5t-68 243.5t-100 316.5
q-24 79 -38.5 143t-14.5 80q0 8 11 21z" />
    <glyph glyph-name="W" unicode="W" horiz-adv-x="1282" 
d="M947 993q3 50 16.5 123.5t28.5 142.5t28 119t18 55q17 17 27 17t52 -17q12 -9 25 -8.5t24 -5.5t18.5 -28.5t7.5 -76.5q0 -93 -23.5 -198.5t-40.5 -223.5l-28 -161.5l-31 -187l-32.5 -199l-32.5 -197.5q-9 -51 -17.5 -87.5t-16.5 -36.5q-5 -9 -22.5 -14t-39.5 -5.5
t-45.5 1.5t-39.5 7q-9 8 -21 17.5t-12 27.5q-5 16 -20 85.5l-33 157l-35 176.5t-25 145q-34 177 -52.5 246.5t-26.5 69.5q0 3 -2.5 -1.5t-8 -28t-14 -70t-20.5 -126.5l-52.5 -228.5l-50 -206.5t-41 -155.5t-25.5 -74.5q-5 -9 -20.5 -15.5t-36 -9.5t-42 -3t-37.5 5
q-9 0 -21.5 7t-12.5 16q-18 33 -38.5 126t-28.5 212q-5 29 -11.5 71.5l-14 91l-15.5 100l-16 98.5q-18 84 -32.5 180l-26.5 183t-20 153.5l-11 92.5q0 17 7 36.5t16 19.5q3 8 25 12.5t47 4.5t47 -4.5t27 -12.5q8 -9 22 -76t23 -160q8 -85 23 -189.5t32 -195t33 -152
t25 -61.5q14 59 23 101q3 33 18.5 103t38 161l49 195.5l52.5 206.5q17 59 40.5 77.5t83.5 1.5q59 -9 75.5 -33t25.5 -91q0 -34 12.5 -100.5t21.5 -125.5q8 -26 18 -64t19.5 -79.5t17.5 -81t13 -68.5l19 -100t11 -53t7 -19t8 3l28.5 161l22.5 128z" />
    <glyph glyph-name="X" unicode="X" horiz-adv-x="873" 
d="M404 1073q24 72 50.5 139.5t66.5 147.5q31 72 56.5 78t81.5 -25q63 -33 32 -96q-9 -16 -16.5 -38.5l-15.5 -46.5q-9 -24 -35 -81.5t-50 -120.5l-61 -152t-27 -79.5t1 -43.5t23 -43q8 -24 36 -81.5l60 -120.5l44.5 -105.5t29.5 -64.5q8 -16 22.5 -52l30.5 -75
q24 -40 38.5 -80t14.5 -48q-9 -24 -15.5 -34.5t-37.5 -18.5q-40 -24 -63.5 -25.5t-31.5 14.5q-9 8 -35.5 63.5t-81.5 191.5q-9 15 -30 63.5t-45 96.5t-53 116q-5 3 -23 -21t-39.5 -60.5t-42.5 -78.5t-33 -73q-9 -24 -23.5 -67t-29.5 -82q-9 -40 -32 -106q-9 -9 -29.5 -16.5
t-44.5 -15.5q-36 -5 -55 -3.5t-25 15.5t-1 44t17 82q31 103 68.5 204t69.5 157l28 61l31.5 64.5l28.5 54.5l18 33q0 8 -13.5 35.5l-28.5 59.5l-37.5 88.5l-36.5 81.5l-44 87l-52 104q-40 63 -45.5 87.5t3.5 40.5q3 12 17 26t31 26t33 18.5t25 3.5q12 -5 32.5 -34.5
t46.5 -74.5l55 -100l57 -110q15 -40 42 -85q8 0 17.5 21.5t25.5 53.5z" />
    <glyph glyph-name="Y" unicode="Y" horiz-adv-x="728" 
d="M22 1327q-17 16 -3.5 39t46.5 47q32 15 51.5 21t33.5 0t26 -24.5t29 -50.5q8 -33 26.5 -83t27.5 -90q16 -73 30.5 -105.5t23.5 -23.5q8 0 36 48.5t61 113.5q40 81 69.5 127.5t38.5 55.5q16 0 29 -3t46 -19q56 -24 60 -50t-28 -90q-9 -12 -24.5 -39l-34.5 -62.5l-40 -76
l-41 -80.5q-41 -78 -63 -125.5t-32 -101.5t-11 -131t-1 -214q-5 -154 -7 -235.5t-10.5 -117.5t-26 -40.5t-53.5 -4.5q-33 3 -49 8t-23.5 39.5t-9.5 112.5t-5 228q0 117 -0.5 189.5t-1.5 117.5t-3 72t-5 52q-9 24 -23.5 73.5t-30.5 98.5l-39 121l-32.5 100.5l-24 70.5
t-12.5 32z" />
    <glyph glyph-name="Z" unicode="Z" horiz-adv-x="721" 
d="M101 1287q-9 3 -11.5 23.5t-0.5 44.5t8 46.5t15 31.5q3 8 13 12t31.5 5t59 -1l97.5 -5q87 0 142.5 -3t89 -12t51.5 -24t31 -39q16 -34 12 -84.5t-46 -150.5q-9 -21 -21 -55l-24.5 -73t-24 -79t-19.5 -73l-49.5 -139l-58 -159l-57 -150t-48.5 -112q-18 -34 -22 -53t13 -28
t59 -12.5t118 -6.5q84 -9 127 -12t52 -11v-31v-47q0 -34 -6.5 -52t-33.5 -24t-83.5 -3t-156.5 12q-84 0 -157 5.5t-89 5.5q-30 8 -50 33t-29 58t-3.5 71.5t26.5 72.5q33 58 74.5 142l80.5 169l70 158.5t44 112.5q0 25 20.5 90.5t46.5 133.5q16 75 30.5 128t14.5 62
q0 8 -34 15t-134 7h-168z" />
    <glyph glyph-name="Agrave" unicode="&#xc0;" horiz-adv-x="818" 
d="M142 1805q0 16 8.5 32t25.5 25q21 16 37.5 21.5t34.5 -2.5t40.5 -29.5t57.5 -58.5l63 -79.5t39 -45.5q34 -16 34 -33q0 -9 -9 -20.5t-21 -22.5t-23 -18t-15 -7q-5 0 -15.5 5.5t-34 23.5t-63.5 51.5l-103 89.5q-26 16 -41 37.5t-15 30.5zM313 1420q9 0 25 11t42 11
q25 9 53 9t37 -9q9 0 18.5 -37t26.5 -88q12 -51 21 -97t18 -97.5t18.5 -116l22.5 -153.5q8 -30 16.5 -71l17.5 -86t20.5 -89.5t24.5 -81.5q16 -77 30 -154.5t23 -142t10.5 -110t-6.5 -57.5q0 -9 -18.5 -21t-42 -21.5t-45.5 -14t-30 -0.5q-17 9 -21 36t-13 112
q-9 51 -24.5 125.5t-31.5 134.5q-13 59 -22 91t-22 47t-34 17.5t-58 2.5q-35 0 -54 -1t-28 -5.5t-12.5 -13.5t-7.5 -25q-9 -22 -21 -82t-23 -126t-18 -121.5t-7 -67.5q0 -9 -8.5 -25t-24.5 -32q-9 -9 -28 -14t-52 4q-30 0 -46 2t-21 19t-1.5 54t12.5 106q16 144 48.5 278
t75.5 254l20 73.5t24.5 96.5l25 108t21.5 107q25 101 47 176.5t22 84.5zM426 786q0 16 -1.5 67t-10.5 102q-9 59 -22 136q0 4 -11.5 -38.5t-24 -99.5t-23 -110t-10.5 -69q0 -17 6 -20t40 -3q51 0 58.5 4.5t-1.5 30.5z" />
    <glyph glyph-name="Aacute" unicode="&#xc1;" horiz-adv-x="818" 
d="M350 1725q25 33 55 65.5t47 58.5q25 25 41.5 35.5t25.5 10.5q12 0 27.5 -8t29.5 -18.5t24 -22t10 -19.5q0 -9 -8 -24.5t-20 -33t-25.5 -33t-25.5 -23.5q-17 0 -46.5 -26.5t-54.5 -51.5q-34 -26 -58 -41.5t-33 -15.5q-17 0 -31.5 20t-14.5 37q0 9 15.5 36.5t41.5 53.5z
M293 1385q9 25 28.5 42t62.5 26q16 9 31.5 10.5t24.5 1.5q14 -3 23 -12q8 -5 25 -58.5t36.5 -129.5t37 -162.5t26.5 -158.5q8 -56 16.5 -108.5t20.5 -109t27.5 -119.5t37.5 -139q4 -26 10 -58.5l12 -65.5l12 -63t11 -51q0 -43 6 -79t6 -79v0q-5 -13 -26 -25.5t-45 -21.5
t-46.5 -12t-30.5 2q-9 4 -18.5 29t-18.5 58.5t-14 71.5t-5 68q0 9 -9 60.5t-25 120.5q-13 54 -22 84t-22 44t-34 16.5t-58 2.5q-69 9 -85.5 1t-16.5 -24q-18 -33 -69 -340l-16.5 -79.5t-16.5 -45.5t-33 -13t-51 -4t-49 4t-26 13q0 9 8.5 82.5t25.5 167.5q12 68 23 124.5
t23 108.5t25 102.5t31 106.5l26.5 93l28.5 104t26 104.5t21 94.5q16 75 30.5 136.5t14.5 78.5zM430 762q-3 101 -12 170l-22 170q-5 4 -16.5 -29t-24 -82t-23.5 -103t-15 -91q0 -26 6.5 -30.5t49.5 -4.5h57z" />
    <glyph glyph-name="Acircumflex" unicode="&#xc2;" horiz-adv-x="804" 
d="M194 1672l64.5 47.5t48.5 31.5q51 42 139 9.5t190 -133.5q85 -85 33 -102q-43 -26 -74 -16t-73 61q-34 25 -60 48t-42 32q-13 4 -21.5 5t-17.5 -2t-23 -12l-39 -25l-56 -35t-46 -34q-34 -26 -55.5 -26t-46.5 26q-17 16 -19 26.5t7 19.5q0 16 28.5 39t62.5 40zM307 1412
q9 9 30.5 15.5t38.5 6.5q16 9 31.5 10.5t24.5 1.5q12 4 30 -30.5t38.5 -103t41 -166.5t38.5 -221l50 -265.5l51 -255.5q12 -35 22.5 -89t16.5 -108t8 -98t-2 -56q-5 -13 -23.5 -25t-42 -19.5t-46 -8.5t-34.5 7q-5 4 -9.5 9t-10.5 23t-12 55t-14 106q0 42 -13 108.5
t-22 117.5q-13 46 -22 71.5t-21.5 37.5t-33.5 14t-58 2q-69 9 -86.5 5.5t-26.5 -28.5q0 -17 -15 -85t-31 -152q-17 -94 -26.5 -156.5t-18.5 -71.5t-33 -13t-51 -4t-49 4t-26 13q-4 8 2.5 64t18.5 128l25 145.5t22 116.5l12 46l18.5 67l23 78l25.5 80l26.5 95l28.5 108
l26.5 108.5t21.5 96.5l31.5 141t24.5 75zM432 743l-23 170l-23 170q-5 4 -16 -35t-23 -92.5t-20 -105t-8 -72.5q0 -26 5.5 -30.5t39.5 -4.5h68z" />
    <glyph glyph-name="Atilde" unicode="&#xc3;" horiz-adv-x="825" 
d="M319 1414q9 9 26 21.5t43 12.5q68 18 102 0q0 -5 12 -60l27.5 -125l30.5 -137t20 -96q9 -34 16 -80t7 -79q4 -22 12 -59l17 -82.5l19 -97l19 -101.5q25 -94 42.5 -175.5t27 -143t12.5 -99.5t-1 -46q-9 -13 -30 -25t-45 -19.5t-44.5 -9t-28.5 7.5q-9 9 -23 58.5t-23 134.5
q-5 21 -15 68.5t-22 99l-23 97t-19 63.5q0 16 -17 25t-85 9q-43 0 -65 -1.5t-34.5 -23.5t-21.5 -76t-25 -159q-18 -85 -26 -130.5t-12.5 -66.5t-8 -27.5t-11.5 -14.5q-9 -9 -33 -13t-50.5 -4t-48.5 4t-26 13q0 9 8.5 82.5t25.5 167.5q12 68 23.5 124.5t23.5 109.5t28 106
t38 113l26.5 96.5l28.5 111.5t26 112.5l21 98.5q16 84 31.5 149.5t24.5 65.5zM434 826q0 33 -6 84.5t-6 85.5q-9 42 -11.5 71.5t-11.5 29.5h-11q-14 -71 -23 -113q-9 -51 -21.5 -98t-12.5 -72q-9 -43 -1.5 -50t58.5 -7q42 0 48.5 9t-2.5 60zM196 1626q4 18 12.5 26t29.5 16
q36 14 88.5 6t113.5 -34q13 -9 31.5 -16t30.5 -12q18 -8 26 -8t34 5q25 4 31 6t9 11q9 10 7 31q2 8 3 14t5 7q3 4 23 2t25 -5t5.5 -32.5t-4.5 -43.5q-9 -23 -29 -44.5t-50 -33.5q-17 -7 -35 -6t-62 6q-27 3 -45.5 8t-58.5 25l-48 20t-40 15q-19 7 -23 6.5t-10 -9.5
q-9 -10 -21 -38q-7 -22 -11.5 -25t-25.5 -6q-21 -4 -23.5 -1.5t-2.5 7.5q-2 10 2.5 47t12.5 56z" />
    <glyph glyph-name="Adieresis" unicode="&#xc4;" horiz-adv-x="783" 
d="M202 1607q-17 9 -17 35.5t17 43.5q9 16 23.5 23.5t57.5 -1.5q42 0 56 -4.5t23 -29.5q9 -17 4.5 -28.5t-4.5 -27.5q-9 -17 -23 -20t-56 -3q-26 0 -53.5 1.5t-27.5 10.5zM452 1618q0 25 6 53t6 37h67q51 0 71 -11.5t20 -44.5q0 -34 -16 -45.5t-75 -11.5q-51 0 -65 3t-14 20
zM293 1380q9 25 23 42t57 26q51 16 62.5 16t28.5 -16q8 -9 21.5 -47t29.5 -98t32.5 -136.5t29.5 -160.5q12 -85 25 -155.5t26.5 -136.5t28.5 -132l33 -142q16 -69 26.5 -136t15 -121t3 -89t-9.5 -39q-13 -13 -33 -24t-39 -17t-34 -7.5t-19 3.5q-9 8 -17.5 29.5t-14.5 50
t-10 61.5t-4 63q0 33 -21 113l-46 182q-9 25 -15 38.5t-17 19t-30 4t-52 -5.5q-39 0 -60 -2t-33 -9.5t-18 -23.5t-14 -45q-9 -43 -17 -110.5t-17 -126.5q-13 -64 -23 -102.5t-24 -57.5t-34.5 -22.5t-53.5 1.5q-34 0 -47 0.5t-22 9.5q-5 8 2 68t19.5 138.5t28.5 160t29 132.5
q9 42 30.5 116l38.5 134q33 84 62.5 221.5zM441 769q0 9 -7 59.5l-16 110.5q-9 68 -22 158q0 9 -6 -4.5t-6 -29.5q-13 -35 -25.5 -84t-21.5 -94t-14.5 -78.5t-5.5 -37.5q0 -9 11 -10.5t45 -1.5q33 0 50.5 1.5t17.5 10.5z" />
    <glyph glyph-name="zero" unicode="0" horiz-adv-x="726" 
d="M38 1126q28 132 79 209.5t137 106.5q33 4 71 -2.5t74.5 -21t68 -34.5t51.5 -43q28 -48 47 -96.5t29 -105.5q9 -43 15.5 -157.5t10 -243.5t3.5 -245.5t-4 -163.5q-29 -152 -95 -234t-170 -82q-76 -10 -123.5 10.5t-104.5 77.5q-24 18 -37.5 33.5t-22.5 33.5t-14.5 41
t-14.5 57q-15 47 -22 166t-7 254t7 259t22 181zM469 633q0 294 -27.5 437t-74.5 182q-29 18 -56 17t-45 -29q-20 -20 -33 -41.5t-22 -52t-16.5 -75t-16.5 -110.5q-6 -67 -6 -167.5t3 -199.5t10.5 -180.5t17.5 -109.5q9 -48 42 -83t72 -44q28 -10 42.5 -2t33.5 27
q23 23 37.5 52t23 77t12 120t3.5 182z" />
    <glyph glyph-name="one" unicode="1" horiz-adv-x="479" 
d="M69 1364q25 17 48.5 37t32.5 20q17 12 41 11t48 -12t46.5 -29t35.5 -39q3 -9 5.5 -211.5t2.5 -445.5t-2.5 -449t-5.5 -223q-9 -18 -19 -20.5t-61 -2.5q-43 0 -61.5 1.5t-18.5 10.5q-5 3 -7.5 48t-3 122.5t-0.5 183v230.5q3 214 4.5 331t-4.5 175t-19.5 76.5t-38.5 36.5
q-69 42 -72 69.5t49 79.5z" />
    <glyph glyph-name="two" unicode="2" horiz-adv-x="803" 
d="M146 1410q17 0 53.5 6.5t70.5 15.5q67 17 131 11.5t106 -22.5q16 -5 34 -22.5t35 -41.5t31.5 -52t23.5 -53q8 -30 10 -85.5t-1 -118.5t-11.5 -126.5t-20.5 -109.5q-34 -153 -113 -285.5t-180 -233.5q-34 -34 -79 -90q0 -9 48 -16t167 -7q88 0 137.5 -1.5t72.5 -9t26 -23
t0 -44.5q0 -30 -2.5 -46.5t-15 -25.5t-40 -12.5t-77.5 -6.5q-60 -5 -123 -7t-120 -2t-103 2t-71 7q-60 8 -92 39.5t-32 73.5q-9 33 6.5 58.5t49.5 76.5l63 84.5t72 85.5q118 118 180 256t80 308q17 110 7 173t-52 97q-26 25 -37 28t-53 -5q-26 0 -61 -7.5t-52 -15.5
q-42 -9 -68 1t-34 44q-18 51 -13 67.5t47 34.5z" />
    <glyph glyph-name="three" unicode="3" horiz-adv-x="720" 
d="M62 1371q0 23 36.5 39t99.5 24q94 15 149 6t103 -48q39 -36 62 -81.5t29 -93.5t-6 -95t-43 -86q-32 -46 -32 -62q29 -51 53 -74q63 -87 94 -190.5t31 -259.5q0 -71 -3 -106t-18 -82q-32 -79 -73.5 -134t-104.5 -86q-36 -16 -63.5 -24t-55 -8t-59 8t-73.5 24
q-36 15 -69.5 30.5l-60.5 28t-42.5 22t-15.5 13.5q3 3 18 23l33 43l33.5 41.5t19.5 18.5q7 7 22 0.5t31 -21.5q39 -32 87 -51.5t80 -11.5q31 7 61 36.5t54 68.5q15 31 21 85.5t3 116.5t-14.5 122.5t-30.5 104.5q-16 47 -60 79.5t-107 56.5q-55 15 -76.5 36t-28.5 69
q-8 31 -9 53t-1 30q0 7 27.5 16.5t66.5 25.5q86 23 114.5 49.5t21.5 65.5q-8 54 -51 75.5t-106 -1.5h-36h-27q-12 3 -27 15.5t-27.5 27.5t-21 32t-8.5 29z" />
    <glyph glyph-name="four" unicode="4" horiz-adv-x="784" 
d="M89 826q12 28 57 120l96 194l96.5 188.5t58.5 103.5q8 16 48 16t73 -16q33 -17 40 -30.5t16 -46.5v-48.5v-85v-109v-120.5q0 -100 1.5 -163t4.5 -99t7 -51t9 -18q8 -9 16 -11.5t17 -10.5q8 0 21.5 -1.5t22.5 -9.5q16 -9 23 -24t-1 -64q0 -33 -3 -50t-19 -17l-49.5 -26
t-22.5 -28.5t-5.5 -59t0.5 -117.5q-5 -87 -9 -134.5t-13 -68.5t-27 -24.5t-51 -3.5q-33 -5 -53 -2t-30.5 25.5t-13 71.5t-2.5 136q8 107 2.5 152.5t-13.5 45.5q0 8 -48.5 10.5t-105.5 11.5q-54 0 -84 0.5t-47 3.5t-25.5 10t-20.5 20q-21 24 -31 41.5t-7 48t21 85.5zM298 650
q41 -5 63 -4.5t32.5 18.5t12.5 58t2 115q0 74 -11 177q-13 0 -42 -49.5t-58 -110.5t-49.5 -115.5t-15.5 -66.5q0 -17 12 -19.5t54 -2.5z" />
    <glyph glyph-name="five" unicode="5" horiz-adv-x="767" 
d="M184 1431q9 0 32 7.5t41 16.5h73h110q50 0 77 -1.5t39.5 -8.5t15.5 -21.5t3 -41.5q4 -33 2.5 -50.5t-16.5 -26.5t-47 -13t-86 -8q-37 0 -73.5 -1.5t-36.5 -10.5q-9 0 -10.5 -34.5t-1.5 -88.5v-70t10 -36t35.5 -19.5t76.5 -20.5q82 -18 134 -78t98 -179q4 -24 8.5 -46.5
t7.5 -52.5t6 -70.5t3 -99.5q4 -69 6 -109.5t-1 -67.5t-10 -46t-20 -46q-37 -111 -122 -159.5t-232 -48.5q-37 0 -62 0.5t-43 3.5t-33 10.5t-33 22.5q-28 9 -52.5 27t-33.5 46q-37 64 10.5 77.5t221.5 -4.5q64 -9 122 8t86 54q9 13 15 51.5t8.5 89.5t0.5 110t-11 115
q-18 128 -70.5 185t-125.5 48q-46 0 -84.5 13.5t-74.5 59.5q-15 13 -22 23t-9.5 29.5t-0.5 55t7 100.5q0 128 17 203t45 103z" />
    <glyph glyph-name="six" unicode="6" 
d="M181 1250q33 51 95.5 99.5t131.5 82.5q33 8 80 23q17 0 28 -17.5t29 -50.5q8 -34 7 -48.5t-18 -31.5q-9 -9 -18 -21.5t-17 -12.5q-9 0 -29 -8.5t-43.5 -21t-47 -29t-39.5 -32.5q-69 -69 -110 -175t-49 -268q-9 -77 -6 -88.5t29 -2.5q17 0 57 5.5t91 5.5q38 3 61 5
t39 -0.5t28.5 -9t30.5 -18.5q60 -34 81 -84t21 -143q0 -39 -1 -64.5t-4 -44.5t-10 -35.5t-19 -37.5q-26 -60 -73 -114t-98 -79q-60 -26 -135 -18.5t-126 41.5q-77 51 -106.5 150t-29.5 270q-9 179 6.5 325t49.5 232q12 42 22 68.5t22 47.5t28 43zM374 227q60 60 75 133.5
t-18 116.5q-5 8 -26 12.5t-50 4.5t-60.5 -4.5t-56.5 -12.5q-26 -9 -40 -15t-20 -14.5t-7 -22.5t-1 -39q3 -69 22.5 -115.5t48.5 -67.5t63.5 -16t69.5 40z" />
    <glyph glyph-name="seven" unicode="7" horiz-adv-x="741" 
d="M12 1359q-9 54 8.5 70.5t98.5 25.5h113.5h149.5q75 0 120.5 -3t72.5 -11t41 -22t28 -36q13 -18 17 -37t-2.5 -49t-25 -77.5l-48.5 -122.5l-51 -150.5t-33 -87.5q-9 -23 -24 -57.5l-33 -75l-37 -84l-37 -82.5q-14 -32 -31 -75t-32.5 -88.5t-27.5 -90.5t-16 -80
q-27 -81 -51 -143t-33 -71q-9 -5 -31 2t-46 19t-43 26.5t-23 23.5q0 9 9 64t27 127q13 53 27.5 98t33 95.5t44.5 112l62 147.5l40 98.5t31 80.5t30 73t30 82q18 27 33 64.5t15 55.5q13 30 15.5 49t-15.5 29t-61 13.5t-118 3.5q-72 0 -111.5 1t-60.5 8.5t-31.5 24.5t-23.5 49
z" />
    <glyph glyph-name="eight" unicode="8" horiz-adv-x="727" 
d="M58 1247q34 60 83 99t136 74q95 26 180 0t120 -104q26 -35 30.5 -62.5t4.5 -87.5q0 -35 -1 -58.5t-4 -41.5t-10.5 -35t-19.5 -38l-33 -65t-24 -39q-9 -18 1 -35.5t45 -68.5q43 -61 57.5 -131.5t23.5 -191.5q4 -113 -3 -186t-34 -121t-79 -77.5t-138 -54.5
q-52 -18 -104.5 -11t-103.5 34q-61 26 -85.5 57.5t-41.5 92.5q-14 34 -21 79.5t-9 93.5t0 93.5t7 80.5q26 95 54.5 146.5t72.5 95.5l69 69q0 9 -27.5 33.5t-53.5 59.5q-96 95 -116 158.5t24 141.5zM427 1062q34 69 36 112t-24 61q-27 34 -86.5 25.5t-110.5 -59.5
q-44 -27 -35 -58.5t70 -91.5q34 -31 55.5 -45t36.5 -11.5t27.5 19.5t30.5 48zM485 439q-9 95 -20.5 161t-37.5 93q-35 43 -52.5 44t-51.5 -33q-52 -44 -81 -97t-46 -122q-18 -113 4 -193.5t66 -106.5q26 -18 50.5 -18t76.5 18q34 17 48 25.5t32 43.5q8 17 12.5 31.5t5.5 34
t-0.5 47.5t-5.5 72z" />
    <glyph glyph-name="nine" unicode="9" horiz-adv-x="647" 
d="M35 1265q26 62 61.5 100.5t80.5 65.5q53 18 116.5 14.5t108.5 -38.5q44 -36 79.5 -104t62.5 -156q9 -40 13.5 -69t5.5 -63.5t-1 -83t-6 -127.5q-5 -129 -15 -225t-29 -169t-48.5 -129t-73.5 -104q-36 -40 -87.5 -72t-99.5 -48.5t-85.5 -14.5t-46.5 29q-9 53 -0.5 93
t35.5 49q26 0 78 23t88 59q70 68 106 225q4 26 10 75.5t10.5 98t6 85.5t-2.5 37q-29 -6 -47 -24q-36 -18 -95 -18t-94 18q-36 9 -70.5 41.5t-60.5 77.5q-14 26 -20.5 74.5t-6.5 101.5t6.5 102t20.5 76zM402 1076q0 12 -10 38t-23.5 54t-27 52.5t-22.5 33.5q-27 26 -36 27.5
t-35 -16.5q-45 -18 -63.5 -62t-18.5 -115q0 -54 2.5 -77t20.5 -41q35 -36 67.5 -27.5t86.5 62.5l38.5 40t20.5 31z" />
    <glyph glyph-name="colon" unicode=":" horiz-adv-x="257" 
d="M11 195q0 34 5.5 53t22.5 33q25 22 57.5 11t46.5 -41q9 -17 13.5 -30.5t4.5 -43.5q0 -39 -4.5 -47t-13.5 -17t-19.5 -13.5t-32.5 -4.5q-53 0 -66.5 19t-13.5 81zM0 733q0 34 5.5 53t22.5 33q25 22 57.5 11t46.5 -41q9 -17 13.5 -30.5t4.5 -43.5q0 -39 -4.5 -47t-13.5 -17
t-19.5 -13.5t-32.5 -4.5q-53 0 -66.5 19t-13.5 81z" />
    <glyph glyph-name="semicolon" unicode=";" horiz-adv-x="294" 
d="M-8 725q0 34 5.5 53t22.5 33q25 22 57.5 11t46.5 -41q9 -17 13.5 -30.5t4.5 -43.5q0 -39 -4.5 -47t-13.5 -17t-19.5 -13.5t-32.5 -4.5q-53 0 -66.5 19t-13.5 81zM51 225q2 9 4 16t5 7q-1 5 50 6q19 0 35 -1.5t19 -1.5q4 -1 3 -11q0 -5 -7 -42t-20 -92q-30 -119 -33 -136
q-7 -26 -10 -35t-7 -9q-5 -2 -32 13.5t-48 33.5q-9 7 -9.5 15t6.5 39q2 11 7.5 33.5l10.5 42.5q4 19 8 40.5t7 33.5l5 22.5t6 25.5z" />
    <glyph glyph-name="less" unicode="&#x3c;" horiz-adv-x="754" 
d="M364 910q4 0 30.5 9.5l58 21.5l59.5 23.5t37 14.5q20 11 33 3t34 -42q9 -24 21 -61q0 -6 -9.5 -16t-24.5 -15q-57 -24 -119 -47t-98 -28q-18 -9 -50.5 -23l-65 -27l-56.5 -23t-26 -12q-6 0 -6 -3.5t6 -3.5q2 -3 44 -22.5l100 -44.5l119.5 -51l103.5 -43
q30 -12 52.5 -22.5t22.5 -15.5q0 -6 -4.5 -26l-9.5 -43l-20.5 -44.5t-13.5 -9.5q-6 2 -28.5 11t-56 24l-75.5 33t-84 39l-109 45.5l-108 46.5q-36 14 -56 22.5t-30.5 17.5t-14.5 22.5t-8 37.5q-6 34 -4.5 44t11.5 16q18 17 69 49t108 63.5t106 55.5t62 24z" />
    <glyph glyph-name="greater" unicode="&#x3e;" horiz-adv-x="771" 
d="M41 918q5 17 10 36t11 25q5 17 12.5 17t48.5 -17q15 -6 46.5 -20t61.5 -25l57.5 -24t37.5 -23q18 -6 55.5 -21.5l79 -32.5l78 -32t51.5 -20q9 -6 22 -12.5t13 -11.5q4 -3 9 -19.5t8 -36t4 -37t-1 -22.5q0 -6 -61 -45.5t-142 -84.5q-21 -12 -64.5 -30.5t-79.5 -29.5
q-41 -12 -85.5 -31.5l-69.5 -30.5q-26 -12 -44.5 -17.5t-23.5 -5.5q-6 2 -16 20.5t-19.5 39.5t-15.5 38t-3 17q4 5 32.5 18t68.5 29.5l85.5 34l84.5 32.5q121 40 155.5 59.5t14.5 25.5q-6 5 -36 16t-60 29q-36 17 -71 29t-44 18l-31.5 15t-36.5 16q-16 5 -42 15.5t-46 22.5
q-57 23 -63.5 32t9.5 44z" />
    <glyph glyph-name="equal" unicode="=" horiz-adv-x="765" 
d="M245 876q97 0 179 2.5t100 2.5h28.5h22.5q6 0 12.5 -1t6.5 -4q3 -3 6 -20t6 -38t5 -38.5t2 -20.5q-7 -9 -14 -9q-15 -4 -108 -7t-199.5 -4t-193.5 -1t-90 3q-4 3 -4.5 18.5t-0.5 50.5q0 22 3.5 34.5t26 18.5t72 8t140.5 5zM247 551q97 0 179 2t100 2h28.5h22.5
q6 0 12.5 -0.5t6.5 -3.5q3 -3 6 -20t6 -38t5 -38.5t2 -20.5q-7 -8 -14 -9q-15 -4 -108 -7t-199.5 -4t-193.5 -1t-90 3q-4 3 -4.5 18.5t-0.5 50.5q0 22 3.5 34.5t26 18.5t72 8t140.5 5z" />
    <glyph glyph-name="question" unicode="?" horiz-adv-x="676" 
d="M30 1302q17 43 46 70.5t82 45.5q34 12 77.5 12.5t85.5 -10.5t79.5 -32t59.5 -51q30 -44 44.5 -104.5t14 -125t-18 -126.5t-51.5 -110l-48 -84t-26 -58t-12.5 -60t-7.5 -89q0 -53 -1.5 -81.5t-7.5 -41.5t-20 -15t-40 -2q-31 -5 -48 -4.5t-23 15.5t-5 50.5t6 101.5
q0 65 1 104.5t10 72.5t27.5 68.5t54.5 92.5q43 52 55 112t3 121q-9 52 -36.5 72.5t-79.5 20.5q-87 0 -105 -70q-9 -27 -24 -28.5t-58 16.5q-53 26 -57 49.5t23 67.5zM239 114q-9 8 -15.5 29.5t-9.5 45.5t-3 46t5 31q8 8 25.5 12.5t35.5 4.5t34 -4.5t21 -12.5q8 -5 12.5 -28
t4.5 -50t-4.5 -52t-12.5 -33q-18 -9 -47 -8t-46 19z" />
    <glyph glyph-name="numbersign" unicode="#" horiz-adv-x="759" 
d="M467 1208q0 51 6.5 104.5t6.5 74.5q10 51 25.5 56t57.5 -15q30 -11 35.5 -25t5.5 -44q-16 -119 -23.5 -183t-7.5 -94t7.5 -34.5t23.5 -4.5q20 0 23.5 -6.5t3.5 -47.5q0 -52 -3.5 -67.5t-23.5 -15.5q-21 0 -33 -2.5t-18 -15.5t-9.5 -40.5t-8.5 -78.5q0 -31 -7 -60.5
t-7 -49.5q-11 -21 -4 -24t59 -3q51 0 67 -11t16 -31q0 -52 -14 -69t-55 -27h-55q-11 -11 -21 -65.5t-20 -167.5q0 -93 -14 -233q0 -11 -18 -16.5t-39.5 -7t-41 1t-24.5 8.5v58v120q9 113 14 169.5t3.5 80t-9 24.5t-22.5 1q-16 0 -24.5 -2.5t-14 -15.5t-8.5 -40.5t-8 -78.5
q-11 -62 -19 -127.5t-8 -106.5q-6 -36 -10 -55.5t-10 -28.5t-17.5 -10.5t-31.5 -1.5q-27 0 -40.5 1.5t-19 13.5t-3.5 37t8 72q0 51 8.5 114t19.5 105v96q0 10 -26.5 13.5t-56.5 14.5q-21 0 -68 14q-11 0 -5.5 17t5.5 38q5 20 9 30.5t13 16t26 6.5t48 1q51 10 66.5 15.5
t15.5 26.5v64.5v86.5q5 46 6.5 70.5t-2 36.5t-14.5 14t-31 2q-42 0 -57 5t-25 36q-11 20 -14 55q0 10 18.5 13.5t49.5 14.5q30 0 69 13q10 10 19 72t9 134q9 72 15.5 110.5t12.5 55.5t15 17.5t25 -4.5q20 0 39 -9t30 -19v-151q-11 -78 -16 -120t-2.5 -61t13.5 -22t32 -3
q20 0 37.5 8.5t17.5 19.5zM412 700v68.5v69.5q10 51 5 59.5t-46 8.5q-31 0 -38 -7t-17 -48q0 -31 -7 -77t-7 -87q0 -62 8 -72.5t19 -10.5q41 0 56.5 22t26.5 74z" />
    <glyph glyph-name="dollar" unicode="$" horiz-adv-x="671" 
d="M192 1457q0 39 6 66.5t6 37.5h35.5h56.5q29 0 45 -2t23.5 -11.5t9 -30.5t1.5 -60q4 -39 7.5 -60.5t9.5 -33t16.5 -15.5t30.5 -8q29 0 55.5 -9t36.5 -18q29 0 29 -8t-29 -56q-10 -30 -40 -79q-10 0 -42.5 1.5t-61.5 11.5q-39 9 -80.5 11t-50.5 2q-30 -11 -47.5 -36
t-22 -56.5t3 -66t27.5 -63.5q20 -21 39 -45.5t40 -33.5q147 -89 217 -223.5t70 -310.5q0 -39 -1 -63.5t-4.5 -42.5t-11.5 -32t-22 -33q-21 -30 -43.5 -42.5t-61.5 -21.5q-25 -11 -38 -18t-19 -19t-6.5 -33.5t-0.5 -60.5q0 -44 -1.5 -67.5t-9 -35t-23.5 -13.5t-45 -2
q-30 0 -46.5 2t-23.5 13.5t-8 35t-1 67.5q0 39 -1 60t-6 32t-15.5 15t-29.5 10q-60 9 -92 30.5t-52 60.5q-11 14 -15.5 23t-3 18.5t9.5 24t23 39.5q29 39 43 44t35 -4q9 0 18 -9t9 -18q4 -11 22 -20.5t42 -18.5t52 -15.5t53 -10.5q20 0 44 9t34 30q14 14 21.5 30t7.5 40.5
t-7.5 61t-21.5 90.5q-11 29 -25.5 55t-38.5 56.5t-62 69.5t-96 93q-89 68 -127.5 148t-28.5 179q9 68 51.5 130t91.5 92q14 9 22 15.5t11.5 17.5t5 30t1.5 54z" />
    <glyph glyph-name="percent" unicode="%" horiz-adv-x="1242" 
d="M427 654q19 65 38.5 115.5t47 109.5t68 137.5l100.5 198.5q19 49 40 92.5t39 76.5t41 71q4 0 29.5 -11t54.5 -25t52.5 -27t23.5 -17q-37 -70 -67 -120l-127.5 -266.5l-91.5 -195.5l-68.5 -154.5l-59.5 -144.5q-30 -86 -68 -174t-73 -159.5t-62.5 -116t-36.5 -44.5
q-11 0 -37.5 6t-53.5 13.5t-69 20.5q-6 0 0.5 19.5t18.5 48t29 61t32 58.5q30 50 74.5 153t125.5 274zM40 1215q30 39 53.5 74.5t53.5 45.5q9 4 31.5 4t47.5 -3.5t47.5 -11t33.5 -16.5q20 -10 38.5 -36.5t28.5 -56.5q19 -30 29 -73t11.5 -91t-5.5 -96t-22 -87
q-21 -66 -66.5 -105t-98 -48t-102.5 15.5t-80 84.5q-15 30 -22.5 82.5t-7.5 111.5t7.5 114.5t22.5 91.5zM187 855q30 -21 53 17.5t32.5 98.5t3.5 123.5t-36 93.5q-21 20 -33.5 16.5t-32.5 -42.5q-15 -30 -22.5 -78t-6.5 -96t11 -86t31 -47zM801 681q20 20 45 36.5t35 16.5
q24 9 41 14.5t32 5.5t31.5 -5.5l42.5 -14.5q24 -15 41.5 -35t29 -52.5t17 -81.5t5.5 -124q0 -141 -23 -212.5t-83 -121.5q-21 -21 -49.5 -33.5t-58.5 -16t-58.5 2t-47.5 20.5q-26 15 -41.5 34t-24.5 50.5t-11.5 78.5t-2.5 118q-10 140 9.5 210t70.5 110zM961 254
q9 15 16.5 57t11 92t3.5 97.5t-4 73.5q-11 34 -31.5 42.5t-43 -3.5t-43 -43t-29.5 -76q-6 -36 -6.5 -82.5t2 -90t7 -77.5t10.5 -43q20 -10 53 1.5t54 51.5z" />
    <glyph glyph-name="ampersand" unicode="&#x26;" horiz-adv-x="953" 
d="M123 1310q16 33 58 69.5t76 53.5q75 16 155 -8t114 -82q16 -21 26.5 -55.5t16 -74t5.5 -82t-3 -79.5q-17 -59 -55 -140.5t-80 -139.5q-18 -18 -26 -28t-7 -22t12.5 -28l32.5 -45q16 -34 38.5 -69t39.5 -43q16 -34 22 -34t23 34q3 16 12.5 47l20 64l20 64t14.5 49
q8 33 13.5 37.5t31.5 -3.5q42 -9 82.5 -23t40.5 -22q0 -9 -15.5 -67.5t-40.5 -133.5q-26 -76 -41 -140.5t-15 -72.5q0 -9 14 -33t31 -57q58 -76 85 -106.5t27 -38.5q0 -9 -21.5 -24.5t-46.5 -31.5q-30 -18 -45.5 -25.5t-28 -2t-27.5 25l-44 58.5l-42.5 54t-24.5 13
q-57 -17 -90 -33q-97 -51 -184 -63t-153 9.5t-105 75t-39 134.5q0 29 13 81.5t36.5 115t54 126t64.5 114.5q8 16 8 28.5t-8 38.5q-26 66 -43 140.5t-23 145t-1.5 130.5t22.5 99zM392 1063q16 42 16 78.5t-16 78.5q-9 25 -14.5 29.5t-30.5 4.5q-26 0 -41.5 -4t-22.5 -18
t-7.5 -41t4.5 -72q0 -93 8 -152.5t25 -59.5q8 0 19.5 16.5t23.5 40.5t21.5 51t14.5 48zM425 370q-9 16 -36.5 52.5l-52.5 70.5q-17 33 -56 89q-5 0 -20 -27.5t-33 -64t-34.5 -74t-24.5 -58.5q-9 -51 1 -77.5t44 -34.5q33 -17 76.5 -10t102.5 33q50 25 58 42t-25 59z" />
    <glyph glyph-name="quotesingle" unicode="'" horiz-adv-x="227" 
d="M39 1319q-3 44 -3.5 67.5t3 35t14 14.5t29.5 6q42 9 52.5 7t15.5 -25q2 -21 4.5 -67.5l5.5 -97.5t4 -97t-1 -67q0 -42 -7 -49t-49 -7q-19 -3 -29.5 -3t-16 8.5t-7 27t-3.5 54.5q0 37 -4 94t-8 99z" />
    <glyph glyph-name="quotedbl" unicode="&#x22;" horiz-adv-x="482" 
d="M39 1319q-3 44 -3.5 67.5t3 35t14 14.5t29.5 6q42 9 52.5 7t15.5 -25q2 -21 4.5 -67.5l5.5 -97.5t4 -97t-1 -67q0 -42 -7 -49t-49 -7q-19 -3 -29.5 -3t-16 8.5t-7 27t-3.5 54.5q0 37 -4 94t-8 99zM250 1213q0 74 0.5 130.5t5.5 61.5q0 4 11.5 5.5t44.5 1.5
q21 0 31.5 -3.5t15 -21.5t4.5 -55.5t-2 -106.5q0 -79 -3 -136.5t-3 -61.5h-21.5h-34.5q-19 0 -29.5 2.5t-15 20t-4.5 55.5v108z" />
    <glyph glyph-name="parenleft" unicode="(" horiz-adv-x="421" 
d="M14 965l26 113.5l39 172l41.5 181t34.5 142.5q9 27 18 43t18 16q2 -1 58 -36q27 -18 42.5 -34t15.5 -25t-14.5 -55.5t-31.5 -107.5q-45 -176 -70 -325.5t-25 -272.5q0 -75 7.5 -158t22 -160t34 -142t42.5 -104q13 -18 20 -29t7 -20.5t-7 -22t-20 -33.5q-18 -27 -33.5 -43
t-24.5 -16t-27 23t-39 58t-41.5 76t-33.5 77q-23 74 -38.5 162t-23 178t-7 178.5t9.5 163.5z" />
    <glyph glyph-name="parenright" unicode=")" horiz-adv-x="460" 
d="M37 1539q-8 7 5 16.5t37 17.5q16 7 37 14.5t29 7.5q7 0 24.5 -27t41.5 -93q33 -74 50 -125.5t25 -108t9.5 -130.5t1.5 -192q0 -131 -4 -227t-16 -180.5t-36 -170t-64 -195.5l-42 -120q-4 -4 -18.5 2.5t-32.5 18t-34.5 24t-24.5 21.5q0 7 2.5 32.5t19.5 75.5
q16 45 32 97.5t29 106t23 102.5t14 86q7 33 9.5 126.5t2.5 200.5q3 105 2 170.5t-9.5 114.5t-25.5 94t-45 111l-29.5 85.5t-12.5 44.5z" />
    <glyph glyph-name="asterisk" unicode="*" horiz-adv-x="538" 
d="M59 1380l29 35q11 11 21.5 17.5t14.5 6.5q7 0 22 -24l57 -94q18 -30 22 -31.5t12 16.5q3 7 7.5 26.5t12.5 37.5q3 18 6.5 31.5t7.5 13.5q3 0 13 -1.5t22 -8.5q11 -4 23 -4.5t16 -0.5q9 0 10 -9q3 -8 -8 -50t-26 -79q-8 -18 -15 -44q0 -4 28.5 -1.5l70.5 6.5q11 3 30 4
q3 -3 6 -16.5t5 -29t1.5 -29t-3.5 -14.5q0 -4 -22.5 -8t-51.5 -11q-28 -4 -42.5 -7t-17.5 -10.5t6.5 -22.5l28.5 -44q20 -38 30.5 -56t13.5 -26t1.5 -10t-4.5 -7q-8 -15 -30 -35t-25 -20l-15 15q-6 7 -18 25.5t-24 39.5l-23 40.5t-14 28.5l-11.5 15.5t-3.5 8.5q-4 0 -8 -9.5
t-11 -20.5q-8 -13 -19 -33t-22.5 -38l-20.5 -32t-12 -15q-8 -8 -13 -3.5t-23 22.5q-26 25 -26.5 39t17.5 40q7 11 12 21t2 10q0 3 6.5 11t14.5 23l19 29q-39 14 -64 26l-46.5 13t-23.5 6q-7 15 16 30q17 9 34 24q15 7 24.5 8.5t35.5 1.5q29 3 32 8t-8 27q-8 15 -23.5 38.5
t-26.5 45.5q-12 18 -20.5 34t-8.5 20z" />
    <glyph glyph-name="plus" unicode="+" horiz-adv-x="693" 
d="M159 583q39 0 60 3t30.5 21t11.5 59t2 116q3 70 5.5 108.5t11 56.5t24 21t44.5 3q24 0 37.5 -3.5t19.5 -22t7.5 -59t1.5 -114.5q0 -75 1.5 -115.5t12 -58.5t33.5 -18.5t66 3.5q39 3 59.5 3.5t29.5 -5.5t9 -21.5t-3 -43.5q0 -29 -2 -44.5t-11.5 -23.5t-30.5 -10.5
t-60 -5.5q-36 -4 -56 -7.5t-29.5 -12.5t-12.5 -26.5t-6 -48.5v-87v-93q3 -33 3.5 -50.5t-3.5 -28t-15 -17.5t-32 -17q-33 -15 -50.5 -21.5t-26.5 -3.5t-12 18t-6 44q-7 28 -8 85t-1 114q0 49 -0.5 76t-3.5 40.5t-9 17.5t-16 8q-15 0 -39.5 5t-45.5 5q-22 6 -46.5 7.5
t-38.5 1.5q-36 6 -43 22t15 73q6 21 11.5 32t17.5 15t33.5 3.5t60.5 -3.5z" />
    <glyph glyph-name="comma" unicode="," horiz-adv-x="272" 
d="M51 225q2 9 4 16t5 7q-1 5 50 6q19 0 35 -1.5t19 -1.5q4 -1 3 -11q0 -5 -7 -42t-20 -92q-30 -119 -33 -136q-7 -26 -10 -35t-7 -9q-5 -2 -32 13.5t-48 33.5q-9 7 -9.5 15t6.5 39q2 11 7.5 33.5l10.5 42.5q4 19 8 40.5t7 33.5l5 22.5t6 25.5z" />
    <glyph glyph-name="hyphen" unicode="-" horiz-adv-x="698" 
d="M247 731q97 0 179 2t100 2h28.5h22.5q6 0 12.5 -0.5t6.5 -3.5q3 -3 6 -20t6 -38t5 -38.5t2 -20.5q-7 -8 -14 -9q-15 -4 -108 -7t-199.5 -4t-193.5 -1t-90 3q-4 3 -4.5 18.5t-0.5 50.5q0 22 3.5 34.5t26 18.5t72 8t140.5 5z" />
    <glyph glyph-name="period" unicode="." horiz-adv-x="266" 
d="M12 132q0 34 5.5 53t22.5 33q25 22 57.5 11t46.5 -41q9 -17 13.5 -30.5t4.5 -43.5q0 -39 -4.5 -47t-13.5 -17t-19.5 -13.5t-32.5 -4.5q-53 0 -66.5 19t-13.5 81z" />
    <glyph glyph-name="slash" unicode="/" horiz-adv-x="621" 
d="M301 1256q18 54 36 145q0 9 24 16.5t60 7.5q63 0 72 -4.5t0 -31.5q0 -18 -7.5 -59l-16.5 -86q-18 -126 -49.5 -245t-58.5 -200q-45 -108 -72 -217.5t-36 -190.5q-9 -45 -25.5 -104t-34.5 -113l-22 -69.5t-14.5 -36t-14.5 -13t-21 -1.5q-18 0 -41 6t-32 6
q-36 9 -40.5 16.5t4.5 43.5q0 18 13.5 51t22.5 69q9 27 24.5 92t24.5 137q18 72 42 159t42 141l69 240.5t51 240.5z" />
    <glyph glyph-name="at" unicode="@" horiz-adv-x="904" 
d="M210 1085q63 63 105.5 93t105.5 54q47 15 103.5 9t96.5 -30q102 -63 161.5 -212t59.5 -346q7 -127 -16.5 -199t-78.5 -127q-32 -32 -79.5 -38.5t-78.5 17.5q-24 15 -34.5 12.5t-49.5 -33.5q-32 -16 -54.5 -23.5t-61.5 -7.5q-63 -8 -98 8.5t-59 64.5q-32 59 -25.5 159.5
t37.5 202.5t81 187t106 113q31 15 73 14.5t74 -24.5q55 -24 68 -103t6 -244q-8 -111 -6.5 -165t17.5 -46q26 16 42 32q7 15 11 26t6.5 32t3 58t0.5 105q0 75 -3 123.5t-12 86t-25.5 71t-43.5 77.5q-63 102 -146.5 94.5t-201.5 -125.5q-72 -63 -118 -146.5t-61 -169.5
q-9 -56 -7 -121t11.5 -129t27.5 -123t42 -101q19 -32 35.5 -51t42.5 -28.5t66.5 -12t108.5 -2.5q54 -4 83.5 -7.5t42 -9.5t13 -17t-2.5 -30q0 -21 -2 -31.5t-14 -15.5t-37.5 -5h-72.5h-78.5t-51.5 3t-39 9.5t-41 18.5q-32 7 -60 21t-35 22q-21 19 -41.5 54.5t-38.5 80
t-30.5 94t-15.5 97.5q-9 39 -12.5 89t-3.5 100.5t3.5 95.5t12.5 73q24 86 70.5 170t118.5 156zM473 411q23 19 35.5 33t17.5 38t4 68t-4 124q0 75 -0.5 116.5t-3 62.5t-6.5 26t-11 5q-21 3 -45 -19t-48 -63.5t-43.5 -98.5t-31.5 -123q-32 -127 -23 -174t65 -47q31 0 46.5 10
t47.5 42z" />
    <glyph glyph-name="bracketleft" unicode="[" horiz-adv-x="382" 
d="M-1 734q0 304 0.5 469.5t4.5 246t13 102t27 39.5q16 16 26.5 25t23 13t32 5t54.5 1q33 0 51 -1.5t27 -10.5t10.5 -27t1.5 -51q0 -57 -4.5 -73t-26.5 -16q-23 0 -41 -2t-18 -13q-12 -12 -13.5 -181t-1.5 -541v-400.5t4 -205.5t13 -75.5t27 -10.5q22 -6 34 -11t18 -14
t7.5 -27.5t1.5 -53.5q0 -33 -2 -51t-12 -27t-31 -10.5t-60 -1.5q-57 0 -79.5 12t-55.5 34q-12 18 -18 39.5t-9 101.5t-3.5 245.5t-0.5 470.5z" />
    <glyph glyph-name="bracketright" unicode="]" horiz-adv-x="440" 
d="M63 1444q-30 0 -36 9t-6 71q-6 30 -6.5 46.5t8.5 24.5t31 9.5t64 1.5q35 0 57 -0.5t37 -3.5t27 -8t27 -15q15 -15 23 -31t12 -67t5.5 -154t1.5 -292v-216.5v-219v-195v-145.5l-9.5 -174.5t-7 -93t-9.5 -45t-16 -28.5q-21 -30 -46 -36.5t-76 -17.5q-47 -5 -72.5 -4.5
t-37.5 9.5t-16.5 27.5t-9.5 48.5q0 31 0.5 47t6 25t16.5 13t32 10q20 5 31 9t17 16t9.5 34t9.5 64v82.5v154v206v237.5l-9.5 337.5t-9.5 175.5t-17 69.5t-31 18.5z" />
    <glyph glyph-name="backslash" unicode="\" horiz-adv-x="593" 
d="M155 734q-22 57 -49 162.5t-51 216t-39.5 203t-15.5 125.5h70q36 0 54.5 -2.5t30.5 -26.5t23 -79.5l33 -160.5q10 -54 31.5 -138t53.5 -158l72 -281.5t41 -227.5l21 -88.5t22 -66.5q10 -21 20.5 -58.5t21.5 -68.5q5 -33 4 -50t-12 -25t-33 -9t-58 -1q-22 0 -34 1.5
t-20 10.5t-14.5 29t-16.5 58l-28.5 105.5t-27.5 106.5q-32 159 -55 253.5t-44 169.5z" />
    <glyph glyph-name="a" unicode="a" horiz-adv-x="793" 
d="M309 1410q0 8 13.5 15t30.5 7q33 16 67 17.5t43 -6.5q8 -17 26 -91.5t37.5 -167.5t36 -184.5t21.5 -140.5q0 -33 19 -121t36 -187q20 -87 36 -169.5t26 -149.5t14 -114t1 -63q-5 -9 -24.5 -18.5t-43.5 -17t-45.5 -10.5t-29.5 2q-9 16 -22.5 72.5t-21.5 147.5
q0 33 -12.5 90.5t-20.5 107.5q-13 49 -21.5 76t-20.5 39t-33 15t-57 3q-38 0 -58.5 -2.5t-32.5 -13t-17.5 -32.5t-13.5 -63l-22.5 -121.5t-21.5 -120.5q-17 -99 -30.5 -126.5t-46.5 -27.5h-28h-27q-42 -9 -51.5 14.5t7.5 106.5q8 66 21.5 145t30 157t34.5 149.5t35 121.5
l29 107.5l26.5 105l29.5 120l37 152.5q8 66 21.5 116.5t22.5 59.5zM408 903q0 41 -5.5 85.5t-5.5 69.5q0 16 -11 33q-5 0 -16.5 -41t-23.5 -94l-23 -103.5t-14 -70.5q0 -25 6.5 -29t48.5 -4q41 -9 48 -6t7 28q0 16 -5.5 53t-5.5 79z" />
    <glyph glyph-name="b" unicode="b" horiz-adv-x="809" 
d="M12 1373q17 26 57.5 49.5t93.5 32.5h78.5h96.5q105 -9 168 -29.5t99 -63.5q34 -40 51.5 -99t18.5 -125t-13.5 -135.5t-44.5 -129.5l-47 -70q0 -9 14.5 -26.5t32.5 -43.5q43 -44 70.5 -93.5t45.5 -127.5q9 -79 1.5 -153t-24.5 -126q-53 -105 -191 -169t-321 -64
q-36 0 -55.5 0.5t-32.5 3.5t-24 10t-28 21q-14 17 -21.5 31t-11.5 44t-6.5 88t-6.5 163q-5 144 -7 316.5t-2 324t2 257t7 114.5zM501 1106q9 60 -7.5 102t-51.5 60q-14 4 -54 6.5t-83.5 2.5t-79 -2.5t-39.5 -6.5q-5 -5 -7 -61t-2 -123.5t2 -127.5t7 -72q9 -27 29 -28t99 17
q96 17 137 72.5t50 160.5zM512 593q-9 8 -29.5 18t-45.5 20t-51.5 18.5t-47.5 13.5q-27 0 -57.5 6t-47.5 6h-35v-79v-166v-119.5t1 -69.5t3.5 -36t7.5 -19q12 -9 20.5 -13.5t21.5 -3.5t35 8t62 21q113 35 167 82.5t54 126.5q0 17 -6 45t-15 56t-19 52t-18 33z" />
    <glyph glyph-name="c" unicode="c" horiz-adv-x="831" 
d="M246 1365q21 16 39.5 27t43.5 18t61 12t91 10q71 8 110.5 11t56.5 -3t15 -24t-14 -51q-9 -51 -32.5 -64.5t-90.5 -13.5q-76 0 -111 -13t-68 -55q-42 -42 -64.5 -96.5t-47.5 -138.5q-26 -97 -29 -199.5t14 -200t52 -185t86 -153.5q42 -51 95 -66.5t129 10.5q50 16 80.5 13
t64.5 -36q16 -9 30.5 -22.5t14.5 -21.5q0 -9 -35 -26t-77 -42l-62.5 -28.5t-42 -15.5t-37.5 -5t-48 5q-68 0 -115.5 24.5t-97.5 75.5q-68 67 -122 187.5t-79 271.5q-21 108 -16.5 223.5t30.5 223t71 198t105 150.5z" />
    <glyph glyph-name="d" unicode="d" horiz-adv-x="771" 
d="M0 728q0 248 1 384.5t7 202.5t19 82.5t38 25.5q24 12 71 12.5t103 -8t114 -24t103 -35.5q146 -66 212.5 -204t58.5 -382q0 -66 -1.5 -135t-9.5 -93q-13 -74 -42.5 -145.5t-71.5 -133.5t-93 -111t-108 -77q-25 -13 -66.5 -28t-84 -27t-79.5 -19t-52 -2q-25 0 -53.5 21.5
t-44.5 54.5q-5 12 -7.5 46.5t-4.5 106.5t-4 190zM575 771q0 114 -12 193.5t-41 134t-77 90t-120 60.5q-129 33 -162 0q-5 -9 -5 -170t3 -352.5t8.5 -352t14.5 -168.5q8 -9 24.5 -6t73.5 28q73 24 128.5 71.5t88.5 113.5q24 44 38.5 78t23 71.5t11.5 86t3 122.5z" />
    <glyph glyph-name="e" unicode="e" horiz-adv-x="621" 
d="M0 1311q0 33 21 74.5t46 58.5q12 3 26 5.5t40.5 3.5t68.5 1.5t109 0.5q108 0 159.5 -1.5t51.5 -9.5q8 0 15.5 -21.5t7.5 -45.5q3 -30 2.5 -46t-17.5 -23t-55 -7.5t-108 -0.5q-100 0 -139 -7t-39 -15q-9 -9 -10 -44t-1 -101q0 -46 1.5 -71t11.5 -36.5t33 -13t65 -1.5
q50 8 81.5 2.5t40.5 -13.5q8 -5 12 -25t4 -43t-4 -42.5t-12 -22.5q-9 -9 -44.5 -16t-77.5 -7t-65 -5.5t-33 -35.5t-11.5 -95.5t-1.5 -185.5v-126t0.5 -104t3 -72.5t7.5 -30.5q0 -9 48.5 -10t140.5 -1q70 0 108.5 -1.5t56.5 -7.5t21 -20t3 -38q0 -42 -3 -61.5t-19 -27.5
q-128 -11 -211 -11q-72 -5 -112.5 -7t-64.5 -1t-38 5.5t-30 13.5q-25 8 -40 22t-15 23q-9 16 -15.5 171.5t-6.5 439.5q0 120 -2 230.5t-4.5 197.5l-4 141.5t-1.5 63.5z" />
    <glyph glyph-name="f" unicode="f" horiz-adv-x="549" 
d="M65 1379q8 16 41 32t58 33q16 3 66 3.5t105.5 -2.5t101.5 -8.5t55 -13.5q8 -5 12 -28t4 -50t-4 -50t-12 -26h-142q-45 0 -71.5 -0.5t-40 -2.5t-16.5 -6t-3 -12v-46v-86q3 -45 7 -69.5t15.5 -36t33.5 -13t64 -1.5q57 8 84 2.5t36 -13.5q8 -5 12 -26.5t4 -45.5t-4 -45.5
t-12 -24.5q0 -9 -28.5 -15.5t-69.5 -6.5h-88t-43 -14.5t-16 -51t-6 -109.5q-5 -103 -13 -210.5t-17 -197t-18.5 -149t-17.5 -67.5q-5 -9 -24.5 -13t-42 -4t-42 4t-22.5 13q-9 8 -9 61.5t9 135.5q8 66 16 152t17 144q0 28 1 81t3.5 119t4.5 141.5t2 150.5q0 73 -0.5 140.5
t0 118.5t3 82t7.5 31z" />
    <glyph glyph-name="g" unicode="g" horiz-adv-x="915" 
d="M127 1252q47 85 103.5 122t161.5 56q51 9 103.5 13.5t95 4.5t71 -4.5t34.5 -13.5q0 -15 -2.5 -35t-6 -39t-8 -34t-8.5 -19q0 -10 -41 -17.5t-98 -7.5q-57 -6 -97 -11.5t-67 -16t-45 -28t-32 -45.5q-24 -39 -41 -83.5t-27.5 -104.5t-15 -137.5t-4.5 -181.5
q0 -86 0.5 -137.5t3.5 -84.5t11 -56t23 -51q14 -43 27.5 -70.5t36 -44t58.5 -24.5t93 -12q95 -10 124.5 2.5t39.5 60.5q18 51 32 121t20 135.5t3 114.5t-17 59q-10 9 -39.5 15.5t-86.5 -2.5h-114q-10 9 -13 30t-0.5 45t9 45.5t16.5 31.5q9 9 49 17t116 8q57 4 88 5.5
t49.5 -1.5t31.5 -13.5t33 -28.5q14 -15 21.5 -26.5t12.5 -27t8 -38.5t9 -60q4 -57 1.5 -114t-13.5 -121t-30 -139.5t-47 -169.5q-10 -57 -22.5 -74.5t-40.5 -26.5q-48 -19 -134.5 -25.5t-181.5 12.5q-96 18 -149.5 42t-91.5 72q-34 42 -60 112t-41 160t-19 197.5t6 226.5
q18 151 40.5 250.5t61.5 166.5z" />
    <glyph glyph-name="h" unicode="h" 
d="M12 1072q-5 13 -3.5 65.5t6 112.5t11 112.5t11.5 67.5q0 9 17 15t45 -3q36 -5 55.5 -10.5t28 -24t7.5 -56t-5 -106.5q0 -75 1.5 -130t10.5 -55h111q41 4 63.5 9t33 22.5t12.5 52.5t2 101q0 92 8 134t17 51q9 4 29.5 6t42 1t40 -5.5t23.5 -13.5q9 -9 12.5 -177.5
t12.5 -501.5v-262.5v-216v-199.5q-5 -10 -23.5 -20.5t-40.5 -18.5t-42.5 -11.5t-29.5 1.5q-10 4 -17 20.5t-11.5 66.5t-6 143t-1.5 251q-5 152 -9.5 234t-13.5 119t-26.5 41t-49.5 0q-60 -5 -89 -7t-41 -37t-13 -119.5t-5 -255.5q0 -149 -1.5 -229.5t-8.5 -117t-22 -42
t-42 -5.5q-28 0 -43.5 7t-23.5 52t-11.5 142.5t-7.5 278.5q0 96 -2.5 185.5t-5 160t-4 116.5t-1.5 56z" />
    <glyph glyph-name="i" unicode="i" horiz-adv-x="305" 
d="M33 1156q8 136 10 197t11 70q8 15 21.5 23.5t53.5 8.5q32 0 54.5 -6.5t31.5 -14.5q3 -9 3 -60.5t-3 -129.5t-9 -174t-13 -192q0 -29 -2 -75.5l-4.5 -103t-3.5 -118t-1 -121.5q-5 -89 -9 -148t-8 -98.5t-8 -66t-7 -50.5q-9 -33 -21.5 -55.5t-20.5 -30.5q-16 -9 -43.5 -6
t-42.5 27q-9 7 -13 15t-6 32t-2 72.5v137.5q0 48 -0.5 105.5t0 114.5t3 109t7.5 88l7 95t7 117t5.5 123t2.5 115z" />
    <glyph glyph-name="j" unicode="j" horiz-adv-x="576" 
d="M293 1138v109.5v93.5v90q4 8 26.5 12.5t49 4.5t49.5 -4.5t28 -12.5q8 -9 14.5 -120t9.5 -255t3 -287.5t-4 -217.5q-5 -75 -10 -128.5t-11.5 -92.5t-15.5 -70t-21 -61q-36 -80 -124 -129t-193 -58q-53 -9 -72 10t-10 72q0 52 8.5 68.5t61.5 25.5q52 17 78.5 30t62.5 40
q12 12 21.5 22.5t16 25t11.5 36t10 57.5q17 96 18.5 281t-7.5 458z" />
    <glyph glyph-name="k" unicode="k" horiz-adv-x="793" 
d="M23 1141q0 113 6 197.5t6 93.5q4 8 28 12.5t52.5 4.5t53 -4.5t29.5 -12.5q0 -9 5.5 -70t5.5 -139v-175q4 0 25 18.5t47 44.5l51.5 54t39.5 46q17 17 40.5 47.5t41.5 57.5l37.5 39t20.5 31q9 9 23.5 10t23.5 1q17 0 37 -6t37.5 -15t29.5 -19t12 -18q4 -5 -7.5 -28
t-29.5 -51.5t-40 -56t-39 -39.5q-9 -9 -23.5 -30.5t-23.5 -38.5q-18 -18 -42.5 -48.5t-50.5 -56.5q-18 -22 -27.5 -35.5t-11.5 -27t2.5 -30.5t13.5 -47q35 -114 81 -214.5t82 -169.5l65.5 -123.5l55.5 -112.5t38.5 -88t14.5 -49q0 -36 -7.5 -42.5t-50.5 -15.5
q-27 -9 -44 -10t-26 -1q-18 9 -42.5 55.5t-50.5 107.5q-18 26 -35.5 56.5t-32.5 60l-27.5 54t-20.5 38.5l-66 145t-74 181q-18 43 -24 47.5t-23 -12.5q-9 -9 -14 -22.5t-8 -47t-5.5 -97l-6.5 -171.5l-8 -205t-6 -121.5t-8 -60t-13 -20.5q-9 -9 -32.5 -2t-49.5 25
q-22 12 -34 23t-17.5 36t-6 73t-0.5 136q0 52 1.5 109t4.5 111t7.5 102.5t9.5 84.5v79.5v108.5v122.5v120.5z" />
    <glyph glyph-name="l" unicode="l" horiz-adv-x="649" 
d="M12 1432q9 0 25.5 6t43.5 6q17 9 33.5 10t25.5 1q14 -2 23 -11q8 -9 14.5 -103t9.5 -237t3 -317t-4 -344q0 -140 1.5 -215.5t10.5 -75.5t48 7l92 16q65 12 102 17.5t58 1t30.5 -20t18.5 -45.5q9 -36 15 -52.5t-3 -16.5q-5 -9 -66 -19.5t-139.5 -19.5t-156 -14.5
t-116.5 -5.5h-69q-5 8 -7 231t-2 488t2 486.5t7 226.5z" />
    <glyph glyph-name="m" unicode="m" horiz-adv-x="1098" 
d="M26 1059l14.5 182.5t10 107t10.5 55t16 26.5q9 9 28.5 14t42.5 5t45 -5t37 -14q9 -6 41 -103t71 -233l79 -285.5t64 -259.5q9 -67 24 -118.5t15 -60.5q9 -48 21.5 1.5t41.5 241.5q9 52 20.5 111l22 115.5l19.5 104l15 77.5q19 66 35 135t16 108q0 28 8 60t18 42
q9 9 32.5 15.5t48 9t45.5 -0.5t27 -12q4 0 8.5 -24.5t8 -65.5t6 -93.5t2.5 -109.5l8.5 -132t9.5 -135l9.5 -123t10.5 -95q4 -34 8.5 -82t8 -101t6.5 -105.5t3 -94.5q0 -72 -1 -111t-7 -57t-19 -20.5t-37 -2.5q-29 0 -76 12q-10 9 -20 68.5t-19 136.5q0 38 -2 79t-4.5 79
t-4 70t-1.5 52q-10 66 -15 63.5t-24 -88.5l-37 -123l-45 -147.5l-42.5 -130t-28.5 -71.5q-6 -10 -27 -15t-45.5 -5t-48 5t-32.5 15q-20 19 -42 105l-60 239q-6 33 -15 71.5l-18 77.5t-18 73.5t-13 58.5q-34 143 -54.5 211t-31 53.5t-13.5 -114t-3 -290.5q0 -211 -2 -312
t-11 -110h-35.5h-53.5q-24 0 -37.5 3t-21 22t-11 61t-7.5 119v164t2.5 165t8 192t15.5 244z" />
    <glyph glyph-name="n" unicode="n" horiz-adv-x="931" 
d="M646 963v220.5t0.5 146.5t3 83.5t7.5 31.5q0 8 21.5 9t54.5 1t49.5 -1t16.5 -9q8 -17 15 -94t7 -191v-132.5t0.5 -168.5t3 -185t7.5 -181v-427q-9 -13 -29 -25t-44 -19t-46 -8t-34 8q-9 3 -28.5 35.5t-45 85t-55 120t-57.5 142.5q-17 49 -46 112t-53 96
q-21 40 -54.5 96.5l-66.5 107.5l-58.5 87.5t-28.5 36.5q-17 8 -18 -16.5t8 -114.5q3 -132 6.5 -254.5t5.5 -218t1.5 -154.5t-3.5 -62q-9 -9 -29 -13t-42.5 -4t-42.5 4t-28 13q-17 16 -25 205t-8 412.5t8 412.5t25 206q8 8 24.5 15t41.5 7q49 8 74.5 -10t34.5 -67
q12 -45 25.5 -83.5t36.5 -82.5t57.5 -100.5t88.5 -137.5q28 -42 57.5 -91l56.5 -98t48.5 -94t34.5 -78q8 -17 22 -44q3 3 5.5 41.5t2.5 102t-2.5 147.5z" />
    <glyph glyph-name="o" unicode="o" horiz-adv-x="776" 
d="M21 1131q31 117 79.5 189t119.5 104q39 11 87.5 11t96.5 -11t91 -32t71 -52q39 -32 70 -88t55 -142q7 -28 11 -52t6.5 -62.5t3 -99.5t0.5 -163q0 -95 -0.5 -158.5t-3 -108t-6.5 -74.5t-11 -57q-24 -118 -72.5 -191t-126.5 -112q-24 -9 -64 -14.5t-82 -8t-79.5 0
t-56.5 11.5q-71 39 -114.5 105.5t-74.5 177.5q-9 27 -13 51.5t-6 66.5t-2 112.5v188.5v177.5t2 111.5t6 69t13 50zM513 1131q-16 47 -56.5 87.5t-79.5 48.5q-48 7 -80.5 4.5t-55.5 -25.5q-28 -32 -46.5 -77.5t-28 -112t-11.5 -158.5t2 -217q0 -102 2 -170.5t8 -115.5
t16.5 -79.5t26.5 -63.5q23 -39 55.5 -61.5t80.5 -22.5q63 7 104.5 36t73.5 100q3 19 7 41t7.5 55t8 82.5t8.5 124.5q7 204 -2 332.5t-40 191.5z" />
    <glyph glyph-name="p" unicode="p" horiz-adv-x="643" 
d="M60 1407q18 9 33 18t15 18q18 4 47 4.5t62 -2t67.5 -6.5t61.5 -8q62 -18 113 -52t78 -79q9 -14 13.5 -29.5t7 -40t3 -62.5t0.5 -95q4 -72 4 -121.5t-6 -82.5t-17 -54.5t-29 -39.5q-27 -36 -73.5 -55t-117.5 -28q-36 -9 -61 -12t-34 -12q-9 -18 -16.5 -75t-7.5 -200
q-9 -103 -16.5 -174.5t-14 -117t-13 -69t-15.5 -32.5q-9 0 -31.5 1.5t-76.5 10.5q-9 0 -22.5 7.5t-13.5 16.5t1.5 56.5t10.5 110.5q4 39 6.5 94.5t3.5 133.5t1.5 183.5t0.5 244.5q4 192 7 296.5t6 155.5t8.5 66.5t14.5 29.5zM382 1204q-9 18 -32.5 28.5t-50.5 19.5t-60 24
l-24 -24q-5 -9 -9 -20t-6.5 -31.5t-2 -53.5t5.5 -86q4 -77 9.5 -120t15.5 -63t27 -22t44 3q35 4 54.5 10t28.5 24t10.5 51.5t1.5 92.5q0 62 -6 110t-6 57z" />
    <glyph glyph-name="q" unicode="q" horiz-adv-x="782" 
d="M32 1052q80 332 319 393q39 8 99 0t92 -32q43 -33 73.5 -80.5t49 -118.5t27.5 -168t9 -228q8 -216 -14.5 -342t-70.5 -189q-24 -32 -22.5 -41t33.5 -33q15 -16 34.5 -30.5t28.5 -22.5q15 -9 17 -22.5t-6 -52.5q-9 -64 -34 -57t-104 79l-52.5 42t-33.5 21t-25.5 4.5
t-26.5 -4.5q-40 -9 -97 3.5t-105 28.5q-128 63 -191 287q-12 36 -18 111.5t-6 161t6 165.5t18 125zM552 818q0 111 -5 190t-16 133.5t-29 88.5t-45 55q-24 15 -39 17t-46 -6q-112 -40 -167.5 -174.5t-55.5 -356.5q0 -159 35.5 -267t91.5 -147q12 -9 21 -13.5t23 -5.5t36 1
t58 7q39 8 54 14.5t31 38.5q31 48 46 145t7 280z" />
    <glyph glyph-name="r" unicode="r" horiz-adv-x="715" 
d="M35 1398q9 17 29 31.5t29 14.5q17 4 63 4.5t98 -2t98.5 -6t64.5 -7.5q78 -18 132.5 -80t63.5 -140q4 -22 0.5 -54.5t-12.5 -67t-21.5 -67t-24.5 -53.5q-18 -27 -56.5 -58.5t-81.5 -57.5q-9 -9 -5 -22t39 -47q17 -18 38.5 -48t30.5 -56q17 -31 33.5 -96t30.5 -145
t24.5 -166t15.5 -159q0 -39 -1.5 -60.5t-8 -31t-20.5 -11t-39 -1.5q-31 -5 -48 -4t-26.5 22t-15.5 68t-14 134q-14 117 -28 198t-33.5 138t-46 97t-65.5 75q-44 43 -65.5 47t-38.5 -13q-9 -9 -16 -97t-7 -261q0 -130 -1.5 -200.5t-8 -103t-20.5 -37.5t-39 -5q-27 0 -41 1
t-21.5 7t-11 20t-7.5 41v69.5v145v199v233.5v327.5t3 172.5t10 75.5t21 36.5zM451 1213q-9 17 -20.5 28.5t-37.5 29.5q-18 4 -53 7.5t-71.5 6t-67 2t-38.5 -4.5v-49.5v-100.5q0 -66 1 -100.5t10 -49t27.5 -12t53.5 11.5q51 9 97.5 31.5t64.5 49.5q8 8 14 27.5t10.5 42
t7 44.5t2.5 36z" />
    <glyph glyph-name="s" unicode="s" horiz-adv-x="693" 
d="M79 1197q16 92 59.5 150.5t119.5 84.5q25 16 89 16t123 -16q67 -17 80 -39t-12 -72q-26 -42 -48 -52t-64 7q-34 8 -66.5 6.5t-57.5 -17.5q-13 -5 -27 -20.5t-25.5 -36.5t-18.5 -44.5t-7 -44.5q0 -51 51.5 -133.5t127.5 -157.5q16 -17 47 -53.5t65 -69.5q33 -47 56 -86.5
t36.5 -80.5t18 -87t1.5 -104q0 -101 -25.5 -158.5t-75.5 -99.5q-18 -18 -49.5 -32.5t-67.5 -26t-73.5 -19.5t-66.5 -11q-18 0 -43 5.5t-51.5 14.5t-49.5 21.5t-35 25.5q-13 8 -29 27t-28.5 40t-19.5 39.5t-2 27.5q3 12 28 20t52 10t48 -2.5t18 -16.5q0 -5 12.5 -10.5
t32.5 -11t44 -8.5t45 -3q33 -9 71 9.5t64 35.5q42 42 44.5 122.5t-22.5 156.5l-35 46l-57.5 73l-62 74.5l-46.5 53.5q-13 12 -31 33.5t-36 45.5t-33.5 47.5t-23.5 41.5q-42 75 -51.5 135t7.5 144z" />
    <glyph glyph-name="t" unicode="t" horiz-adv-x="782" 
d="M22 1412q3 0 19.5 1.5t54.5 5.5t102 10l163 15h73.5h123.5q61 3 94.5 2.5t48.5 -9.5t18 -28t3 -52q0 -30 -2.5 -45.5t-14.5 -24t-39 -12t-75 -6.5q-42 -5 -64 -11t-33.5 -28t-15.5 -68.5t-7 -132.5q-5 -50 -7.5 -122.5t-3 -156t-0.5 -170v-164.5q0 -205 -1.5 -290
t-9.5 -93q-5 -9 -25 -15t-44.5 -9t-48 -3t-35.5 5q-5 3 -7.5 25t-3 85t-0.5 177.5v303.5q0 114 1 221t3.5 191t4.5 138t2 63q3 16 3 24.5t-11.5 11.5t-38 1t-74.5 -5q-58 -5 -89.5 -4t-46.5 10t-20 29t-8 53q-9 41 -3.5 54.5t14.5 22.5z" />
    <glyph glyph-name="u" unicode="u" horiz-adv-x="837" 
d="M0 881q3 188 5.5 295t5.5 162t7 72t12 25q15 15 59 15t75 -15q3 -4 5 -17t4 -67.5t4.5 -168.5t6.5 -321v-327t2 -172t6.5 -74t12.5 -32q22 -35 64 -54t88 -22t88.5 11t66.5 45q15 18 24.5 49t14.5 89.5t5 153t-3 241.5q0 76 -2 154t-4 147t-3 124.5t-1 86.5
q-4 61 -3 95.5t10 51t29.5 18.5t55.5 -1q23 0 43.5 -7t28.5 -14q10 -79 10 -133q0 -27 1.5 -66t4.5 -82t6.5 -87t7.5 -82q3 -89 3.5 -196.5t-2.5 -207t-8.5 -179.5t-12.5 -114q-31 -147 -115.5 -211t-222.5 -56q-169 7 -262.5 76.5t-116.5 200.5v181.5v412.5z" />
    <glyph glyph-name="v" unicode="v" horiz-adv-x="854" 
d="M11 1412q26 1 42 10q15 8 37 9.5t38 1.5q15 0 23 -1.5t17.5 -23.5t26 -74.5l49.5 -155.5q24 -72 64 -218l96 -345q15 -64 42 -148q8 -9 17.5 19t25.5 140q7 31 15 75l17 94t19.5 102.5t22.5 100.5l29 178.5t14 107.5q8 55 25 70t81 15q63 0 76 -16t-2 -79l-35.5 -138.5
l-38 -160l-35.5 -159.5l-29 -137q-9 -36 -18.5 -80.5t-20.5 -90l-22.5 -89.5t-23.5 -80l-30.5 -140.5t-22.5 -92.5q0 -24 -6.5 -50.5t-14.5 -34.5q-16 -16 -63 -16t-86 16q-16 7 -25 14.5t-14 30.5t-8 69t-6 130q-9 71 -24 153.5t-42 189.5t-68 243.5t-100 316.5
q-24 79 -38.5 143t-14.5 80q0 8 11 21z" />
    <glyph glyph-name="w" unicode="w" horiz-adv-x="1291" 
d="M947 993q3 50 16.5 123.5t28.5 142.5t28 119t18 55q17 17 27 17t52 -17q12 -9 25 -8.5t24 -5.5t18.5 -28.5t7.5 -76.5q0 -93 -23.5 -198.5t-40.5 -223.5l-28 -161.5l-31 -187l-32.5 -199l-32.5 -197.5q-9 -51 -17.5 -87.5t-16.5 -36.5q-5 -9 -22.5 -14t-39.5 -5.5
t-45.5 1.5t-39.5 7q-9 8 -21 17.5t-12 27.5q-5 16 -20 85.5l-33 157l-35 176.5t-25 145q-34 177 -52.5 246.5t-26.5 69.5q0 3 -2.5 -1.5t-8 -28t-14 -70t-20.5 -126.5l-52.5 -228.5l-50 -206.5t-41 -155.5t-25.5 -74.5q-5 -9 -20.5 -15.5t-36 -9.5t-42 -3t-37.5 5
q-9 0 -21.5 7t-12.5 16q-18 33 -38.5 126t-28.5 212q-5 29 -11.5 71.5l-14 91l-15.5 100l-16 98.5q-18 84 -32.5 180l-26.5 183t-20 153.5l-11 92.5q0 17 7 36.5t16 19.5q3 8 25 12.5t47 4.5t47 -4.5t27 -12.5q8 -9 22 -76t23 -160q8 -85 23 -189.5t32 -195t33 -152
t25 -61.5q14 59 23 101q3 33 18.5 103t38 161l49 195.5l52.5 206.5q17 59 40.5 77.5t83.5 1.5q59 -9 75.5 -33t25.5 -91q0 -34 12.5 -100.5t21.5 -125.5q8 -26 18 -64t19.5 -79.5t17.5 -81t13 -68.5l19 -100t11 -53t7 -19t8 3l28.5 161l22.5 128z" />
    <glyph glyph-name="x" unicode="x" horiz-adv-x="826" 
d="M404 1073q24 72 50.5 139.5t66.5 147.5q31 72 56.5 78t81.5 -25q63 -33 32 -96q-9 -16 -16.5 -38.5l-15.5 -46.5q-9 -24 -35 -81.5t-50 -120.5l-61 -152t-27 -79.5t1 -43.5t23 -43q8 -24 36 -81.5l60 -120.5l44.5 -105.5t29.5 -64.5q8 -16 22.5 -52l30.5 -75
q24 -40 38.5 -80t14.5 -48q-9 -24 -15.5 -34.5t-37.5 -18.5q-40 -24 -63.5 -25.5t-31.5 14.5q-9 8 -35.5 63.5t-81.5 191.5q-9 15 -30 63.5t-45 96.5t-53 116q-5 3 -23 -21t-39.5 -60.5t-42.5 -78.5t-33 -73q-9 -24 -23.5 -67t-29.5 -82q-9 -40 -32 -106q-9 -9 -29.5 -16.5
t-44.5 -15.5q-36 -5 -55 -3.5t-25 15.5t-1 44t17 82q31 103 68.5 204t69.5 157l28 61l31.5 64.5l28.5 54.5l18 33q0 8 -13.5 35.5l-28.5 59.5l-37.5 88.5l-36.5 81.5l-44 87l-52 104q-40 63 -45.5 87.5t3.5 40.5q3 12 17 26t31 26t33 18.5t25 3.5q12 -5 32.5 -34.5
t46.5 -74.5l55 -100l57 -110q15 -40 42 -85q8 0 17.5 21.5t25.5 53.5z" />
    <glyph glyph-name="y" unicode="y" horiz-adv-x="704" 
d="M22 1327q-17 16 -3.5 39t46.5 47q32 15 51.5 21t33.5 0t26 -24.5t29 -50.5q8 -33 26.5 -83t27.5 -90q16 -73 30.5 -105.5t23.5 -23.5q8 0 36 48.5t61 113.5q40 81 69.5 127.5t38.5 55.5q16 0 29 -3t46 -19q56 -24 60 -50t-28 -90q-9 -12 -24.5 -39l-34.5 -62.5l-40 -76
l-41 -80.5q-41 -78 -63 -125.5t-32 -101.5t-11 -131t-1 -214q-5 -154 -7 -235.5t-10.5 -117.5t-26 -40.5t-53.5 -4.5q-33 3 -49 8t-23.5 39.5t-9.5 112.5t-5 228q0 117 -0.5 189.5t-1.5 117.5t-3 72t-5 52q-9 24 -23.5 73.5t-30.5 98.5l-39 121l-32.5 100.5l-24 70.5
t-12.5 32z" />
    <glyph glyph-name="z" unicode="z" 
d="M101 1287q-9 3 -11.5 23.5t-0.5 44.5t8 46.5t15 31.5q3 8 13 12t31.5 5t59 -1l97.5 -5q87 0 142.5 -3t89 -12t51.5 -24t31 -39q16 -34 12 -84.5t-46 -150.5q-9 -21 -21 -55l-24.5 -73t-24 -79t-19.5 -73l-49.5 -139l-58 -159l-57 -150t-48.5 -112q-18 -34 -22 -53t13 -28
t59 -12.5t118 -6.5q84 -9 127 -12t52 -11v-31v-47q0 -34 -6.5 -52t-33.5 -24t-83.5 -3t-156.5 12q-84 0 -157 5.5t-89 5.5q-30 8 -50 33t-29 58t-3.5 71.5t26.5 72.5q33 58 74.5 142l80.5 169l70 158.5t44 112.5q0 25 20.5 90.5t46.5 133.5q16 75 30.5 128t14.5 62
q0 8 -34 15t-134 7h-168z" />
    <glyph glyph-name="braceleft" unicode="{" horiz-adv-x="665" 
d="M195 1264q0 83 3.5 132t18 77.5t42.5 43t77 28.5q18 9 39.5 10.5t30.5 1.5q18 0 21 -5t3 -31q0 -62 -5.5 -77.5t-40.5 -15.5q-36 0 -42 -35.5t-6 -140.5q0 -79 -8 -126t-26 -108q-18 -36 -28.5 -74t-19.5 -56t-7.5 -23t19.5 -23q9 -9 23.5 -38.5t23.5 -55.5
q4 -22 7.5 -39.5t6 -36t2 -42t-4.5 -58.5q-5 -54 -7 -93t-1 -70.5t6 -59.5t14 -58q18 -53 37 -74.5t81 -30.5q26 -5 40 -8.5t20.5 -11.5t8.5 -22t2 -40q9 -44 4 -51.5t-40 -7.5q-36 0 -77.5 9.5t-80.5 27.5t-69.5 41.5t-42.5 50.5q-9 17 -17.5 54t-14.5 84.5t-7.5 100
t3.5 101.5q0 70 -0.5 109t-9.5 66q-5 21 -9 33t-12 18.5t-22 10.5t-40 9q-27 4 -41.5 7.5t-20.5 11t-7 22t-1 41.5q-9 43 -5 52t40 18q43 9 67 32t51 85q9 35 15.5 82t6.5 153z" />
    <glyph glyph-name="bar" unicode="|" horiz-adv-x="355" 
d="M33 1227q9 105 16 199t7 130q4 30 8 48t13.5 24.5t29 2.5t55.5 -16q35 -9 39 -16.5t-5 -42.5q0 -9 -2 -36t-4.5 -64.5t-4 -81.5t-1.5 -87q0 -45 -2 -94t-5 -95t-7 -86t-8 -66q-9 -54 -14 -96t-6 -101.5t1 -149.5t7 -239q4 -123 5 -190t-3.5 -100t-16 -43t-32.5 -19
q-27 -9 -70 -12q-5 4 -11 127t-9 276.5t-2 294.5t10 181q0 21 1.5 58.5t4 85t4.5 101t2 107.5z" />
    <glyph glyph-name="braceright" unicode="}" horiz-adv-x="665" 
d="M117 1442q0 18 -5.5 39.5t-5.5 30.5q-9 18 11.5 18t82.5 -18q30 -9 49 -17t31.5 -18t23 -24t24.5 -35l8.5 -29t7.5 -38t5.5 -57.5t2.5 -86.5q0 -63 0.5 -99t3.5 -60t10.5 -42.5t21.5 -44.5q18 -44 31.5 -58.5t49.5 -23.5q43 -9 50.5 -18t7.5 -52q9 -53 -5.5 -63
t-75.5 -19q-44 -9 -58.5 -16.5t-23.5 -42.5q0 -18 -6 -56t-6 -73q18 -177 -4.5 -285.5t-65.5 -160.5q-18 -18 -47 -33t-62 -26t-66.5 -16.5t-59.5 -5.5q-27 0 -37 5.5t-10 41.5q0 52 11.5 68.5t47.5 25.5q18 0 41 1t41 10q17 9 26.5 15.5t16 18.5t12.5 34t15 62q9 61 9 99
t-9 100q-9 105 9 192.5t62 123.5q9 18 7.5 29.5t-19.5 64.5q-22 57 -34 95.5t-18 72t-6.5 70t-0.5 90.5q-5 52 -8.5 84t-10 50t-18.5 24t-33 6q-18 0 -21 5.5t-3 41.5z" />
    <glyph glyph-name="asciitilde" unicode="~" horiz-adv-x="837" 
d="M17 827q9 69 32.5 104t58.5 44q51 17 126 -7t170 -84q60 -35 91.5 -46t57.5 -11q34 0 51.5 15.5t17.5 41.5q0 9 8 10t26 1q34 0 44 -8.5t1 -59.5q-9 -42 -41.5 -75.5t-83.5 -50.5q-26 0 -50.5 3t-75.5 21q-35 9 -71.5 23.5t-53.5 32.5q-26 17 -57.5 34t-56.5 35
q-42 25 -64 18t-39 -41l-25 -36t-32 -10q-35 0 -39 10t5 36z" />
    <glyph glyph-name="quoteleft" unicode="&#x2018;" horiz-adv-x="272" 
d="M26 1270q6 14 16 35.5t22 44.5l22.5 44t17.5 33q0 3 9 5q3 0 10 -12.5t14.5 -28t13.5 -30.5t6 -21q3 -3 -2 -19.5t-11 -32.5q-7 -20 -13.5 -46.5l-12.5 -49.5q-3 -20 -7 -36.5t-7 -16.5q-4 -2 -19.5 -1t-33.5 4t-32 7t-15 8q-6 3 1.5 41.5t20.5 71.5z" />
    <glyph glyph-name="quoteright" unicode="&#x2019;" horiz-adv-x="310" 
d="M18 1353q-13 12 0 28t56 46q12 6 18.5 5.5t16.5 -9.5q41 -45 88 -183q33 -90 13 -83q-24 6 -55 19t-37 16q-3 3 -13 19.5l-22 36.5q-20 42 -38 70t-27 35z" />
    <glyph glyph-name="quotedblleft" unicode="&#x201c;" horiz-adv-x="438" 
d="M109 1430q0 3 11 7t21 7q23 6 32 6.5t12 -2.5q0 -3 -3.5 -18t-9.5 -35q-7 -17 -13.5 -41t-9.5 -40q-7 -14 -13 -31.5t-9 -30.5q-3 -14 -12 -40t-15 -49q-20 -59 -26 -58q-4 -2 -13 5.5t-18 17t-16 19t-7 11.5q0 3 1 12t4 19l16.5 49.5l27.5 84.5q13 43 25 75t15 32z
M176 1122q-8 68 85 264q9 20 18.5 36.5t12.5 16.5q1 0 7 -10.5t12 -23.5l11.5 -25.5t5.5 -16.5q0 -3 -4.5 -19t-17.5 -43q-14 -30 -27.5 -79.5t-13.5 -85.5q-3 -24 -8.5 -27.5t-35.5 -3.5q-34 0 -39.5 1.5t-5.5 15.5z" />
    <glyph glyph-name="quotedblright" unicode="&#x201d;" horiz-adv-x="443" 
d="M282 1082q-3 0 -21.5 52l-39.5 116.5l-38 121t-17 63.5q4 4 16 4t39 -9q11 -3 17 -5.5t11.5 -10.5t11 -24t14.5 -46q9 -32 24.5 -74.5l24.5 -65.5q13 -51 12.5 -62t-23.5 -29q-9 -9 -18 -20t-13 -11zM32 1326q-9 13 -9 26.5t14 40.5q4 13 19 31q2 0 10 -14l19.5 -35
t24.5 -47.5l25 -50.5q13 -37 25.5 -83.5t17.5 -69.5q4 -32 -4 -37t-44 -5q-27 4 -33.5 8.5t-10.5 22.5q0 15 -5.5 42.5t-13.5 58t-17 61t-18 51.5z" />
    <glyph glyph-name="cent" unicode="&#xa2;" horiz-adv-x="693" 
d="M235 958q22 0 26.5 19t4.5 102q0 37 0.5 57.5t8 30t24 11.5t47.5 2q30 0 45.5 -2t21.5 -12.5t6 -32.5t-3 -63q0 -68 1.5 -90t7.5 -22t28 -5t52 -5q52 -6 64.5 -15.5t-2.5 -24.5q-6 -6 -15.5 -20t-15.5 -29q-3 -12 -7.5 -18t-19.5 -9t-43.5 -2.5t-80.5 0.5q-53 3 -82 4
t-46 -2t-27 -11t-25 -23q-30 -30 -43.5 -87t-7.5 -132q6 -76 19 -113.5t43 -67.5q30 -38 70 -49.5t139 -11.5q45 0 69 -0.5t35.5 -2.5t14 -6t2.5 -11q0 -16 7.5 -29.5t13.5 -28.5v-41q-50 -15 -72 -21q-30 0 -54.5 -1t-24.5 -7q-10 -54 -10 -91q-6 -47 -21 -101
q0 -6 -18.5 -1l-40.5 11q-24 7 -36 12.5t-18 15.5t-6 28.5v52.5q-3 37 -6 57.5t-9 32t-17 17l-29 14.5q-76 22 -125.5 92.5t-64.5 169.5q-9 71 -5.5 136.5t16 119.5t33 94t47.5 59q37 22 71.5 36t57.5 14z" />
    <glyph glyph-name="sterling" unicode="&#xa3;" horiz-adv-x="754" 
d="M170 978q-9 213 37 321t157 134q42 17 93 11.5t77 -22.5q8 -5 23 -20t29 -32.5t22.5 -32.5t5.5 -18q0 -5 -15 -16t-34.5 -23t-38 -20.5t-26.5 -8.5q-9 0 -17.5 2.5t-16.5 20.5q-9 8 -20.5 8t-36.5 -8q-30 -13 -48 -29.5t-26.5 -47.5t-9 -83t4.5 -136q0 -51 1 -79t7 -40.5
t20 -14.5t40 -2q25 3 39.5 4t23.5 -5t17.5 -21.5t21.5 -45.5q8 -26 23 -69q0 -9 -21.5 -15.5t-46.5 -6.5q-48 -5 -73 -8.5t-37 -11t-13.5 -21.5t-1.5 -39q0 -77 -16 -158t-41 -149l-30.5 -72.5t-3.5 -29.5q101 -12 170 -12l182 -22q8 0 4 -23.5t-4 -56.5q-5 -30 -11 -46.5
t-29.5 -22.5t-72 -5t-137.5 6q-102 0 -177.5 7t-83.5 16q-9 0 -18 19.5l-17 37.5q-13 21 -19.5 34t-4 28.5t13.5 40t33 67.5q60 111 81 180t21 138q0 30 -1.5 46t-9 23.5t-23 9t-45.5 1.5q-34 0 -91 11v32.5v58.5q3 30 6.5 46t12.5 23.5t25.5 9t46.5 1.5t45.5 2t23 14.5
t9 40.5t1.5 79z" />
    <glyph glyph-name="yen" unicode="&#xa5;" horiz-adv-x="848" 
d="M12 1371q33 30 60 48q18 18 60 36q9 0 49.5 -69l85.5 -153t81 -159t36 -88v-12q4 0 29.5 44t55.5 101l58.5 113t37.5 79q9 36 17 55t20 27t31.5 7t51.5 -5q27 0 72 -12q9 -5 -2.5 -44.5t-35.5 -98l-55.5 -129l-62.5 -137.5l-61 -116.5t-20 -57.5t20 -22t61 -8q31 0 48 -1
t25 -7t9.5 -18t1.5 -34q0 -23 -1.5 -35t-10.5 -18t-28.5 -6.5t-55.5 -0.5q-41 -5 -63.5 -8.5t-32.5 -11.5t-11.5 -22.5t-1.5 -41.5t1.5 -42.5t10.5 -22t29 -7.5t56 -1q31 0 48 -1.5t23.5 -8t5.5 -21t-5 -41.5q0 -45 -9 -52.5t-63 -7.5q-32 0 -49 -3t-25 -20t-9 -53.5
t-1 -103.5q0 -63 -2 -98t-10 -50.5t-25 -18t-48 -2.5q-36 -5 -55.5 -5t-28.5 13.5t-10.5 45.5t-1.5 91q0 81 0.5 123t-5.5 61t-21 23t-46 9q-54 0 -63 7.5t-9 52.5t9 52.5t63 7.5q27 4 41.5 7.5t21 10t8 19.5t1.5 36q0 27 -1.5 41.5t-9.5 21t-25 8t-48 1.5q-32 -5 -49 -6.5
t-25 4.5t-9 20.5t-1 41.5q0 45 9 52.5t63 7.5q18 0 48 12q0 9 -14.5 51.5t-38.5 101t-54 124.5t-61 120l-35.5 77t-29.5 65t-18 45t-1 17z" />
    <glyph glyph-name="Aring" unicode="&#xc5;" horiz-adv-x="811" 
d="M315 1613q0 25 6 42t6 26q9 9 21.5 9.5t46.5 0.5q51 0 76.5 -11.5t25.5 -44.5q0 -43 -21.5 -50t-80.5 -7q-60 0 -70 4.5t-10 30.5zM224 1069l44.5 205.5t27.5 102.5t25.5 38.5t39.5 15.5q42 9 69 9t44 -9q8 -9 26.5 -87t39 -174l37.5 -182.5l22 -111.5q0 -34 18 -128
t61 -280q16 -81 28.5 -155.5t18.5 -133t6 -96t-8 -45.5q-5 -9 -24 -17t-41 -13.5t-42 -6.5t-28 3q-9 0 -22.5 55t-22.5 149q-5 21 -13.5 63.5l-18 91.5l-19.5 96.5t-18 77.5q-9 9 -26 15.5t-76 6.5q-39 0 -59.5 -1t-31 -7t-14.5 -17t-8 -32q-9 -35 -22.5 -96t-26 -123.5
t-21.5 -113t-9 -62.5q0 -26 -25.5 -47.5t-76.5 -21.5q-68 2 -68 22q-5 8 4 81t24 164.5t32.5 178t30.5 121.5q9 25 24 89.5t32 124.5q25 59 41.5 133zM418 854q0 51 -6 103t-6 78q0 16 -11 45q-5 0 -15 -26t-22 -68t-23.5 -97t-19.5 -114q-9 -26 -1.5 -30.5t58.5 -4.5
q21 0 32 1.5t15.5 12t3.5 34t-5 66.5z" />
    <glyph glyph-name="Ccedilla" unicode="&#xc7;" horiz-adv-x="837" 
d="M15 813q4 121 28.5 226t65 185.5t96 132.5t121.5 67q30 9 78.5 14.5t96 6.5t83.5 -1t42 -6q4 -11 1.5 -29.5t-8.5 -37.5t-16 -35t-19 -20q-10 -10 -27.5 -12t-26.5 -2h-37.5h-57.5q-41 -10 -66.5 -26t-55.5 -56q-51 -57 -84 -144t-45.5 -189t-4 -209.5t39.5 -203.5
q61 -183 138 -246t200 -12q61 20 91 16.5t60 -43.5q9 -21 11 -33t2 -21q0 -11 -27 -29t-64 -36t-76.5 -31t-63.5 -13q-82 -10 -97.5 -44.5t56.5 -64.5q40 -20 72 -65.5t23 -96.5q0 -30 -18.5 -73t-48.5 -64q-15 -9 -44 -18.5t-62 -17.5t-67 -13t-58 -5q-41 0 -55 3.5
t-14 23.5q0 62 23.5 81t85.5 28q71 10 101 24t21 44q0 20 -40 41q-92 30 -114 76.5t19 127.5q20 40 18 49.5t-32 30.5q-57 45 -103.5 125t-79.5 178t-50 206.5t-11 210.5z" />
    <glyph glyph-name="Egrave" unicode="&#xc8;" horiz-adv-x="649" 
d="M75 1775q0 8 14 23.5t31 32.5q8 8 21.5 14.5t22.5 6.5q8 0 28.5 -14t37.5 -30q16 -25 45 -56.5t54 -64.5q24 -25 39.5 -47.5t15.5 -30.5q0 -5 -5.5 -16t-12.5 -22.5t-14.5 -19.5t-10.5 -8q-9 0 -29.5 15t-36.5 40q-25 16 -61.5 45t-60.5 54q-33 24 -55.5 46.5t-22.5 31.5
zM9 1355q8 24 21.5 40.5t22.5 25.5q16 8 73.5 10t181.5 2q87 0 134 -0.5t69.5 -3t28.5 -6.5t11 -12v-39.5v-38.5q0 -17 -3 -26t-20 -14.5t-52.5 -8t-101.5 -5.5q-108 0 -150 -3.5t-50 -19.5v-132q-5 -46 -5.5 -71t10 -35.5t35.5 -10t71 5.5q74 0 98.5 -1t33.5 -9
q8 -9 12 -29.5t4 -42.5t-4 -40.5t-12 -21.5q-9 -9 -46 -15t-86 -6q-42 -5 -65 -12.5t-33 -37.5t-11.5 -93t-1.5 -178q0 -67 1.5 -125.5t4 -101.5t6.5 -92q3 -5 36.5 -7t79 -2t95.5 2t88 7q41 8 55.5 2t31.5 -14q8 -9 12 -29.5t4 -42t-4 -39.5t-12 -21q-9 -9 -62 -17
t-136 -16q-108 -5 -165.5 -6.5t-87 1.5t-41 12t-27.5 26q-17 12 -26 21.5t-13 33.5t-4.5 69t-0.5 129q0 41 -0.5 110t-1.5 152t-3 172.5t-5 173.5q0 132 0.5 211t0.5 123.5t2 63.5t7 32z" />
    <glyph glyph-name="Eacute" unicode="&#xc9;" horiz-adv-x="748" 
d="M293 1663l46 47t55 64q33 41 55.5 59t31.5 18q12 3 28.5 -7t31 -25t23 -31t5.5 -24l-43 -45l-133.5 -108.5t-69.5 -51t-31 -7.5t-20 23q-17 33 -14.5 44t35.5 44zM29 1366q16 16 30.5 35t23.5 19q8 8 79.5 10t163.5 2q132 0 178 -2t55 -10q8 -9 9 -30.5t1 -45.5
q0 -21 -3 -32.5t-19 -17.5t-51.5 -9.5t-101.5 -6.5q-75 0 -132 -2t-57 -10q-9 0 -15 -33t-6 -99q0 -50 1 -77t12.5 -39t36.5 -11.5t71 5.5q49 3 77 2.5t43 -9t19 -25.5t4 -46q0 -30 -4 -47t-19 -26t-43 -11.5t-77 -2.5q-42 -5 -65 -12.5t-33 -37.5t-11.5 -93t-1.5 -178
v-162.5t0.5 -97.5t3 -47t7.5 -12q8 -9 66 -9t133 9q74 0 126.5 -2t61.5 -10q8 -5 12 -24.5t4 -42.5t-4 -42.5t-12 -22.5q-9 -9 -62 -17t-136 -16q-112 -5 -170.5 -6.5t-88 1.5t-41.5 12t-32 26q-17 16 -26 29.5t-12 47.5t-1.5 100t6.5 187q0 66 -2 147t-4.5 164t-4 160.5
t-1.5 136.5q-5 107 -7 166t-0.5 90t6 44.5t13.5 30.5z" />
    <glyph glyph-name="Edieresis" unicode="&#xcb;" horiz-adv-x="674" 
d="M113 1631q0 16 6.5 26t15.5 19h66q49 0 57.5 -6t8.5 -39q8 -42 -10 -54t-67 -12q-42 0 -64 20.5t-13 45.5zM356 1621q0 16 5 31t5 24q3 3 22.5 4.5t42.5 0.5t43 -5t25 -12q16 -9 16 -40.5t-16 -47.5q-17 -9 -57 -14.5t-64 3.5q-9 8 -15.5 19.5t-6.5 36.5zM13 892
q-5 177 -6.5 274.5t4.5 146t19.5 65t38.5 33.5q12 8 23.5 12t36 6.5t69.5 3t124 0.5q123 0 178 -2t55 -10q8 -9 12 -26t5 -35.5t-1 -35t-5 -24.5q0 -9 -34.5 -15t-142.5 -6q-79 0 -122 -1.5t-62.5 -15t-22.5 -45.5t-3 -93q0 -46 1 -71t12.5 -35.5t36.5 -10t71 5.5
q74 0 99 -1t34 -9q8 -9 12 -29.5t4 -42.5t-4 -40.5t-12 -21.5q-9 -9 -46.5 -15t-86.5 -6q-42 -5 -65 -12.5t-33 -37.5t-11 -93t-1 -178v-125.5t0.5 -101.5t3 -67.5t7.5 -24.5q3 -5 36.5 -7t78.5 -2t95 2t88 7q66 8 83 -10.5t17 -67.5q0 -30 -4.5 -47.5t-26 -28t-68.5 -15.5
t-134 -8h-155h-87q-17 0 -34 13t-33 30q-13 12 -19.5 21.5t-9.5 28t-3.5 53t-0.5 97.5q0 36 -0.5 103t-1.5 151t-3.5 178t-5.5 186z" />
    <glyph glyph-name="Ecircumflex" unicode="&#xca;" horiz-adv-x="696" 
d="M72 1648q8 8 39 31.5l67 49.5t69 47.5t46 26.5l13.5 5t14.5 -1t25.5 -12l46.5 -25q29 -17 65 -44t68 -55.5t54 -53t22 -36.5q0 -17 -22 -25t-55 -8q-9 0 -36.5 16.5t-51.5 49.5l-62 45.5t-37 21.5q-9 3 -28.5 -4t-44.5 -22t-52.5 -34.5t-51.5 -39.5q-25 -25 -45 -26.5
t-44 15.5q-25 16 -25 38.5t25 39.5zM39 1383q8 16 21.5 29.5t22.5 13.5q8 8 79.5 10t163.5 2q95 3 146 4t74 -7.5t24.5 -28.5t-1.5 -56q0 -21 -3 -32.5t-19.5 -17.5t-52 -9.5t-101.5 -6.5q-75 0 -132 -2t-57 -10q-9 0 -15 -33t-6 -99q0 -50 1.5 -77t13 -39t36.5 -11.5
t71 5.5q58 0 85 -1t36 -9q8 -5 12 -26.5t5 -46.5t-1 -46.5t-5 -24.5q-9 0 -46 -5.5t-86 -5.5q-42 -5 -65 -12.5t-33 -37.5t-11.5 -93t-1.5 -178q0 -67 -0.5 -125.5t0 -101.5t3 -67.5t7.5 -24.5q3 -5 36.5 -7t79 -2t95.5 2t88 7q41 8 56 2t32 -14q8 -9 12 -29.5t4 -42
t-4 -39.5t-12 -21q-9 -9 -62 -17t-136 -16q-150 -5 -226 -7t-108.5 55.5t-35.5 205t-6 442.5v357t2 187t6.5 77.5t13.5 29.5z" />
    <glyph glyph-name="Igrave" unicode="&#xcc;" horiz-adv-x="541" 
d="M114 1692q-85 66 -99.5 95t23.5 68l35.5 17.5t27.5 8.5q9 0 54.5 -41t121.5 -135q56 -57 62.5 -76t-11.5 -37q-19 -29 -51 -29t-50 29q-10 9 -42.5 35t-70.5 65zM240 1176q9 132 11.5 187t12.5 65q9 9 32 13.5t47.5 4.5t45.5 -4.5t27 -13.5q4 -6 6 -57.5t0.5 -126.5
t-6 -164t-13.5 -169q0 -33 -2.5 -85.5t-5 -114t-4 -127.5t-1.5 -127q-6 -62 -10.5 -121.5t-9 -108t-9 -81.5t-8.5 -42q-10 -66 -51 -84t-87 21q-6 9 -8.5 20t-3.5 35t-1 64.5v107.5v103.5t1 116t3.5 116.5t8.5 105q4 47 8.5 106t8 122t6 124.5t2.5 114.5z" />
    <glyph glyph-name="Icircumflex" unicode="&#xce;" horiz-adv-x="523" 
d="M18 1606q9 9 50.5 41t88.5 61q46 38 87.5 56.5t51.5 18.5q23 0 73 -28.5t101 -66.5t90 -75.5t39 -55.5q0 -19 -24 -35t-52 -16q-61 34 -89 63q-43 42 -67.5 63.5t-44.5 24.5t-42 -10.5t-59 -40.5q-39 -19 -70 -42.5t-31 -32.5q-10 -10 -47 -8t-55 21q-19 18 -19 30.5
t19 31.5zM195 1102q0 66 2 125.5t5 104.5t8 72t11 27q4 9 24 13.5t44 4.5t44 -4.5t26 -13.5q9 -10 11.5 -72.5t0 -153.5t-8.5 -198t-15 -206q0 -33 -3 -81.5l-6.5 -102.5t-8 -111.5l-8.5 -108.5q-6 -109 -11 -178.5t-11.5 -111.5t-16 -61t-23.5 -28q-29 -10 -61 7.5
t-41 56.5q-6 9 -6.5 113t2 229.5t7 234.5t10.5 129q4 51 7 94.5t7.5 100.5t10.5 119z" />
    <glyph glyph-name="Iacute" unicode="&#xcd;" horiz-adv-x="430" 
d="M123 1702q28 18 61 51t52 62l46.5 45.5t28.5 17.5q9 0 23.5 -10.5t29.5 -25t25.5 -29t10.5 -23.5q0 -10 -17.5 -33.5t-45.5 -41.5q-29 -29 -68.5 -63t-57.5 -52q-39 -39 -67.5 -41t-46.5 17q-19 18 -16 48.5t42 77.5zM48 1160q4 80 7 131.5t6 81.5t8.5 44t15.5 20
q9 4 29.5 6t43 1t41 -5.5t24.5 -13.5q9 -10 11 -78t2 -238q-6 -62 -10.5 -119t-7.5 -102l-5 -73.5t-2 -32.5q0 -10 -2.5 -41.5t-5 -77.5t-4 -103.5t-1.5 -118.5q-6 -118 -11 -194.5t-13.5 -123t-20.5 -68t-30 -30.5q-19 -19 -55.5 -11.5t-45.5 36.5q-6 4 -8 88t-1 198
t6.5 231.5t15.5 188.5q0 33 1.5 80.5t4 101.5l5 111.5t2.5 110.5z" />
    <glyph glyph-name="Idieresis" unicode="&#xcf;" horiz-adv-x="430" 
d="M23 1604q-19 9 -19 39t19 49q9 9 29.5 15t59.5 -3q46 0 54 -8.5t8 -54.5q0 -39 -8 -44.5t-54 -5.5q-29 0 -54.5 1.5t-34.5 11.5zM275 1628v25v26q19 38 76 38q56 0 72 -19t16 -57q0 -29 -22.5 -44.5t-78.5 -5.5q-47 0 -55 4t-8 33zM136 1111q0 66 2 125.5t5 104.5t8 72
t11 27q4 9 22.5 13.5t41 5.5t43.5 -1t31 -6q9 -6 13.5 -19.5t6 -43t-0.5 -78t-6 -123.5q0 -53 -2.5 -110t-6 -109t-8 -94t-8.5 -65q0 -29 -2.5 -74.5t-5 -100t-4 -114t-1.5 -115.5q-6 -109 -11 -178.5t-13.5 -111.5t-20.5 -61t-30 -28q-19 -10 -32.5 -8t-31.5 21
q-19 9 -30 26.5t-20 36.5q0 9 2 112.5t5 225t8 223t11 107.5q0 4 1.5 33t4.5 74.5t7.5 105.5t10.5 127z" />
    <glyph glyph-name="Ntilde" unicode="&#xd1;" horiz-adv-x="908" 
d="M634 963q-5 144 -7 235.5t-1 144.5t6 74.5t14 26.5q8 4 27.5 5.5t40.5 0.5t38.5 -5.5t22.5 -12.5q4 -5 11.5 -217t14 -466.5t10 -468t-0.5 -221.5q-9 -18 -35 -32.5t-70 -14.5q-18 -5 -29 -5.5t-20.5 10.5t-22.5 37.5t-34 75.5q-27 44 -59 120l-58 138l-53.5 124
t-52.5 99q-23 43 -57 99.5l-67 107.5t-58 86t-29 35v-84v-89.5v-107.5q4 -62 6.5 -126.5t3.5 -121.5t1.5 -103t0.5 -72q0 -45 -1 -68.5t-7 -35.5t-18 -16.5t-33 -8.5q-27 0 -50 1.5t-32 10.5q-9 8 -16 95.5t-10 217.5t-3 284t5 295q0 114 2 178t6 97t11 44.5t16 20.5
t26.5 10.5t44.5 1.5q44 0 65.5 -19.5t39.5 -98.5q17 -53 71.5 -160t151.5 -239q17 -27 39.5 -68l46 -86l44.5 -88.5l35 -73.5q0 -18 7 -27t16 -9q0 -5 0 31.5v101.5v152.5v184.5zM196 1626q4 18 12.5 26t29.5 16q36 14 88.5 6t113.5 -34q13 -9 31.5 -16t30.5 -12
q18 -8 26 -8t34 5q25 4 31 6t9 11q9 10 7 31q2 8 3 14t5 7q3 4 23 2t25 -5t5.5 -32.5t-4.5 -43.5q-9 -23 -29 -44.5t-50 -33.5q-17 -7 -35 -6t-62 6q-27 3 -45.5 8t-58.5 25l-48 20t-40 15q-19 7 -23 6.5t-10 -9.5q-9 -10 -21 -38q-7 -22 -11.5 -25t-25.5 -6
q-21 -4 -23.5 -1.5t-2.5 7.5q-2 10 2.5 47t12.5 56z" />
    <glyph glyph-name="Ograve" unicode="&#xd2;" horiz-adv-x="855" 
d="M192 1769q0 9 8.5 24.5t18.5 25.5l50 26q14 4 51 -28t76 -74.5t69.5 -83.5t30.5 -55q0 -15 -12.5 -26t-30.5 -16t-37 -1.5t-33 18.5q0 9 -32 36t-70 66q-39 28 -64 53t-25 35zM41 1149q28 94 69.5 153t108.5 88q38 18 66 26t85 -1q161 -10 244 -92t122 -262q4 -34 8 -64
t7 -71.5t2.5 -101.5t-4.5 -154q0 -119 -4 -197t-13 -134t-26.5 -98t-45.5 -89q-29 -39 -76.5 -68.5t-101.5 -46t-110 -17.5t-103 19q-57 9 -108 56t-69 95q-24 51 -39 94.5t-23 100.5t-10.5 138t-2.5 210q0 113 -0.5 181.5t2 110.5t7.5 68.5t15 55.5zM584 746
q0 108 -5.5 187.5t-18.5 136.5t-34.5 94t-54.5 61q-10 9 -41.5 17.5t-59.5 8.5q-48 9 -65.5 0.5t-35.5 -26.5q-39 -29 -53.5 -76t-23.5 -113q-15 -67 -18 -174t2 -217.5t16.5 -205t26.5 -136.5q0 -19 15.5 -45t34.5 -44q18 -19 35.5 -21.5t65.5 -2.5q66 0 107 24.5t65 87.5
t33 170.5t9 273.5z" />
    <glyph glyph-name="Oacute" unicode="&#xd3;" horiz-adv-x="873" 
d="M330 1609q0 9 26 44t60.5 75.5t68 76t48.5 45.5q18 9 32 5.5t43 -31.5q38 -19 29.5 -47.5t-55.5 -66.5q-19 -10 -50.5 -40l-49.5 -48q-29 -29 -54 -40t-34 -11q-19 0 -41.5 9.5t-22.5 28.5zM15 764q-10 284 38.5 433.5t162.5 197.5q57 28 104 29t124 -17q42 -10 72 -21
t54.5 -29t48 -45t52.5 -69q18 -19 31.5 -63l32.5 -101q4 -43 8 -76t6 -73.5t1.5 -96.5t-4.5 -146q0 -208 -17 -320t-45 -159q-48 -85 -126 -131.5t-191 -46.5q-95 0 -143.5 22.5t-95.5 79.5q-34 42 -56 96t-34.5 129t-17.5 174.5t-5 232.5zM520 1180q-10 18 -34 35.5
t-42 27.5q-19 9 -46 17.5t-55 8.5q-105 0 -144 -164t-20 -494q4 -123 14.5 -203.5t31.5 -128t55 -66t87 -18.5q57 -10 97 15t69 73q14 28 23 63.5t15 87.5t8.5 125.5t2.5 178.5q4 99 2 168t-10 118.5t-22 85.5t-32 70z" />
    <glyph glyph-name="Ocircumflex" unicode="&#xd4;" horiz-adv-x="859" 
d="M105 1630q0 4 30 28.5t70 52.5t80 52.5t60 30.5l20.5 13t15 3.5t22.5 -7.5l43 -21q28 -20 61 -47t61 -54t47.5 -51t19.5 -38q0 -10 -17.5 -29t-45.5 -9l-75 51q-43 38 -67.5 57t-45 21.5t-42.5 -11.5t-60 -42q-39 -19 -78 -35t-48 -16q-29 0 -45 16t-6 35zM3 670
q-9 312 41.5 494t173.5 239q38 18 65 26t75 -1q123 -10 195 -54t120 -148q23 -43 37.5 -81t23.5 -91.5t12.5 -131.5t3.5 -201q0 -119 -3.5 -197t-12.5 -132.5t-23.5 -94t-37.5 -81.5q-34 -72 -100 -116t-143 -59t-154 2.5t-133 70.5q-34 33 -58.5 79.5t-41 112.5
t-26.5 155.5t-14 208.5zM559 1087q-19 66 -53.5 110t-72.5 54q-67 18 -108 15.5t-69 -40.5q-20 -20 -32.5 -41.5t-21 -52t-13.5 -75t-9 -110.5q-6 -53 -6.5 -141.5t2 -179.5t7 -167.5t10.5 -104.5q18 -48 39 -84t50 -54q28 -19 83 -19t94 19q38 18 62 50t38.5 89.5t20 148.5
t5.5 229q0 85 -1 142t-4 96t-7.5 65.5t-13.5 50.5z" />
    <glyph glyph-name="Odieresis" unicode="&#xd6;" horiz-adv-x="880" 
d="M204 1611q-10 18 -5 29.5t5 21.5q0 9 18 11t57 2q57 0 71 -13t5 -51q-10 -19 -19.5 -27t-56.5 2q-48 0 -61.5 3t-13.5 22zM506 1586q-48 -10 -55.5 -5.5t-7.5 43.5q0 47 7.5 53.5t55.5 -2.5q57 0 67 -6.5t10 -44.5q0 -29 -10 -33.5t-67 -4.5zM51 1119q28 123 76.5 192
t125.5 98q47 14 103.5 14t110.5 -12.5t101.5 -38t76.5 -63.5q33 -39 56 -84.5t37.5 -109.5t19 -151.5t0.5 -210.5q0 -200 -10.5 -324.5t-38.5 -181.5q-39 -105 -115 -155.5t-189 -59.5q-34 -6 -55 -6t-37.5 3t-32.5 10.5l-39 17.5q-62 28 -103.5 74.5t-66.5 124.5t-35 195.5
t-10 288.5v142t2.5 98.5t7.5 73t15 65.5zM583 1068q-19 66 -54 112t-73 65q-20 9 -44.5 13.5t-48.5 4.5t-43 -4.5t-28 -13.5q-29 -19 -56 -85t-45 -142q-6 -39 -6.5 -133.5t2 -199t7 -194t10.5 -117.5q18 -53 35.5 -87t38.5 -54.5t48 -28t66 -7.5q76 -10 124.5 45t77.5 169
q0 14 1.5 45.5t4 73.5t5 93t2.5 104q0 85 -0.5 140t-3 91.5t-7 61t-13.5 48.5z" />
    <glyph glyph-name="Otilde" unicode="&#xd5;" horiz-adv-x="873" 
d="M51 1119q28 123 76.5 192t125.5 98q47 14 103.5 14t110.5 -12.5t101.5 -38t76.5 -63.5q33 -39 56 -84.5t37.5 -109.5t19 -151.5t0.5 -210.5q0 -200 -10.5 -324.5t-38.5 -181.5q-39 -105 -115 -155.5t-189 -59.5q-34 -6 -55 -6t-37.5 3t-32.5 10.5l-39 17.5
q-62 28 -103.5 74.5t-66.5 124.5t-35 195.5t-10 288.5v142t2.5 98.5t7.5 73t15 65.5zM583 1068q-19 66 -54 112t-73 65q-20 9 -44.5 13.5t-48.5 4.5t-43 -4.5t-28 -13.5q-29 -19 -56 -85t-45 -142q-6 -39 -6.5 -133.5t2 -199t7 -194t10.5 -117.5q18 -53 35.5 -87t38.5 -54.5
t48 -28t66 -7.5q76 -10 124.5 45t77.5 169q0 14 1.5 45.5t4 73.5t5 93t2.5 104q0 85 -0.5 140t-3 91.5t-7 61t-13.5 48.5zM163 1626q4 18 12.5 26t29.5 16q36 14 88.5 6t113.5 -34q13 -9 31.5 -16t30.5 -12q18 -8 26 -8t34 5q25 4 31 6t9 11q9 10 7 31q2 8 3 14t5 7
q3 4 23 2t25 -5t5.5 -32.5t-4.5 -43.5q-9 -23 -29 -44.5t-50 -33.5q-17 -7 -35 -6t-62 6q-27 3 -45.5 8t-58.5 25l-48 20t-40 15q-19 7 -23 6.5t-10 -9.5q-10 -10 -21 -38q-7 -22 -11.5 -25t-25.5 -6q-21 -4 -23.5 -1.5t-2.5 7.5q-2 10 2.5 47t12.5 56z" />
    <glyph glyph-name="multiply" unicode="&#xd7;" horiz-adv-x="818" 
d="M499 700l84.5 77t39.5 36q6 -8 15.5 -13t35.5 -33q25 -29 37 -46t7 -35t-29 -41.5l-70 -65.5q-48 -43 -71.5 -67.5t-26.5 -43.5t13.5 -39t52.5 -53l55.5 -64.5t28 -41t2 -28.5t-21.5 -27q-18 -16 -31 -20.5t-29 4t-39 30.5l-60 60q-36 33 -56.5 49.5t-39 16.5t-42 -18
t-62.5 -54q-48 -43 -68 -69t-33 -33.5t-28.5 3.5t-54.5 41q-42 28 -47.5 35t-3.5 22q8 7 40.5 45t74.5 77l56.5 62t29.5 35t8 18.5t-7 14.5q-7 7 -31 40.5t-45 66.5l-67 79.5t-31 42.5t-3 18.5t17 9.5q8 7 21.5 15t35.5 2q13 6 22 7t21 -8t30.5 -31l52.5 -63q33 -42 54 -64
t42 -24.5t48.5 16t72.5 59.5z" />
    <glyph glyph-name="Ugrave" unicode="&#xd9;" horiz-adv-x="908" 
d="M148 1857q0 11 16 22.5t28 23.5q21 21 34.5 25t25.5 4q39 -23 61 -44q21 -22 51.5 -61.5t52.5 -73.5q27 -29 42 -47.5t19 -32.5t-0.5 -26.5t-14.5 -29.5q-22 -22 -39 -21t-51 36q-6 5 -19.5 18l-30.5 28.5l-35.5 31.5t-35.5 28q-45 34 -74.5 70.5t-29.5 48.5zM44 808
q0 117 -0.5 226t0.5 193t4.5 137t9.5 59q0 11 15 18.5t60 -3.5q27 0 42.5 -9.5t22.5 -63.5t8.5 -169.5t1.5 -328.5q0 -192 2 -305t6 -176t10 -89t12 -43q17 -29 50.5 -48.5t74.5 -28t83.5 -5t76.5 21.5q27 22 44 50.5t26 98.5t9.5 200t-4.5 355q0 202 1 311.5t7.5 160.5
t22 59.5t44.5 8.5q21 0 48 -2t27 -13q5 -6 14.5 -100t18 -222t12.5 -263t-1 -225q0 -258 -37 -391.5t-127 -178.5l-48.5 -20t-40.5 -12t-49 -3.5t-73 6.5q-146 0 -222.5 43.5t-121.5 121.5q-12 17 -17.5 45.5t-8.5 94.5t-3 181.5v307.5z" />
    <glyph glyph-name="Uacute" unicode="&#xda;" horiz-adv-x="915" 
d="M445 1792q45 45 76.5 90.5t43.5 45.5q11 11 21.5 12.5t22.5 1.5q5 0 20 -10t30.5 -22.5t28.5 -25t13 -17.5q0 -18 -43 -62t-97 -89t-102 -77t-58 -26q-12 0 -21.5 8.5t-9.5 20.5q-6 10 -8 20t5 25.5t25.5 40.5t52.5 64zM25 308q-6 33 -6.5 209t4 375.5t12.5 364t20 176.5
q5 10 27 15.5t47 5.5t47.5 -5.5t28.5 -15.5q5 0 8 -47.5t4.5 -126t2 -181.5t0.5 -215q-6 -198 -6.5 -309.5t2.5 -170.5t8.5 -80.5t11.5 -38.5q21 -22 44.5 -41t45.5 -19q90 -35 154.5 -14t99.5 89q10 22 15.5 59t7 138.5t-0.5 290.5t-7 516q0 61 1 94.5t7.5 49t22 18.5
t44.5 3q34 11 54.5 3.5t20.5 -18.5q10 -12 17.5 -190.5t10.5 -395t0 -406.5t-13 -223q-12 -29 -33 -58.5t-46.5 -56.5t-52 -48t-48.5 -31q-39 -12 -95 -13t-113.5 5.5t-110.5 20t-86 31.5q-57 34 -93 98t-57 142z" />
    <glyph glyph-name="Ucircumflex" unicode="&#xdb;" horiz-adv-x="859" 
d="M104 1640q-12 10 -13.5 20t11 25.5t42.5 40.5t81 64q45 34 91.5 54.5t58.5 20.5q45 11 101 -26t124 -93q67 -57 80.5 -90.5t-20.5 -44.5q-18 -12 -31.5 -17t-30.5 1t-41 24t-63 52l-64 62t-40 28q-39 -35 -60 -46q-22 -12 -59 -44l-61 -31q-35 -35 -53.5 -35t-52.5 35z
M0 846q11 281 14 427t15 158q0 11 26.5 13t48.5 2q27 0 42.5 -10t22.5 -64.5t9 -173t2 -337.5q5 -254 10 -384.5t19 -189.5t42 -71t79 -29q156 -45 225 90q10 27 15.5 54t7 118t-1 279t-7.5 537q0 67 1 103.5t7.5 53.5t22 20.5t44.5 3.5q34 11 54.5 3.5t20.5 -18.5
q10 -12 17.5 -190.5t10.5 -395t0 -406.5t-13 -223q-22 -68 -80 -120.5t-114 -73.5q-51 -12 -113.5 -12t-122.5 11.5t-113.5 34t-86.5 56.5q-39 33 -60.5 61.5t-31 97.5t-11 201t-1.5 374z" />
    <glyph glyph-name="Udieresis" unicode="&#xdc;" horiz-adv-x="880" 
d="M184 1673q3 32 15 44q0 11 23 21t68 10q56 0 65.5 -7.5t9.5 -52.5q0 -57 -25 -73.5t-81 -16.5q-22 0 -48.5 26.5t-26.5 48.5zM499 1612q-35 0 -45.5 27.5t1.5 62.5q0 21 15 33.5t60 12.5q112 0 90 -90q-12 -35 -44 -46.5t-77 0.5zM20 818q0 123 1.5 232.5t4.5 192.5
t5.5 133.5t2.5 56.5q5 5 27 7t47 0.5t47.5 -7t28.5 -15.5q5 -6 8 -37t4.5 -96t2 -168.5t0.5 -254.5q-6 -186 -8.5 -294t-1 -167t7.5 -82.5t18 -40.5q21 -57 51.5 -75t98.5 -29q67 -12 120 9t75 66q10 33 18 109t12 184t4 243t-5 288q-6 95 -9 158.5t-3 102.5t3 58.5t9 25.5
q5 10 22.5 15.5t38.5 7t41.5 -0.5t32.5 -7q17 -12 30 -172.5t19 -361.5t2.5 -387.5t-20.5 -247.5q-6 -34 -22 -70t-37 -67t-45 -55t-46 -34q-57 -35 -126 -37.5t-159 8.5q-113 21 -169.5 61.5t-101.5 118.5q-12 17 -17.5 39t-8.5 83.5t-3 179.5v327z" />
    <glyph glyph-name="agrave" unicode="&#xe0;" horiz-adv-x="811" 
d="M142 1805q0 16 8.5 32t25.5 25q21 16 37.5 21.5t34.5 -2.5t40.5 -29.5t57.5 -58.5l63 -79.5t39 -45.5q34 -16 34 -33q0 -9 -9 -20.5t-21 -22.5t-23 -18t-15 -7q-5 0 -15.5 5.5t-34 23.5t-63.5 51.5l-103 89.5q-26 16 -41 37.5t-15 30.5zM313 1420q9 0 25 11t42 11
q25 9 53 9t37 -9q9 0 18.5 -37t26.5 -88q12 -51 21 -97t18 -97.5t18.5 -116l22.5 -153.5q8 -30 16.5 -71l17.5 -86t20.5 -89.5t24.5 -81.5q16 -77 30 -154.5t23 -142t10.5 -110t-6.5 -57.5q0 -9 -18.5 -21t-42 -21.5t-45.5 -14t-30 -0.5q-17 9 -21 36t-13 112
q-9 51 -24.5 125.5t-31.5 134.5q-13 59 -22 91t-22 47t-34 17.5t-58 2.5q-35 0 -54 -1t-28 -5.5t-12.5 -13.5t-7.5 -25q-9 -22 -21 -82t-23 -126t-18 -121.5t-7 -67.5q0 -9 -8.5 -25t-24.5 -32q-9 -9 -28 -14t-52 4q-30 0 -46 2t-21 19t-1.5 54t12.5 106q16 144 48.5 278
t75.5 254l20 73.5t24.5 96.5l25 108t21.5 107q25 101 47 176.5t22 84.5zM426 786q0 16 -1.5 67t-10.5 102q-9 59 -22 136q0 4 -11.5 -38.5t-24 -99.5t-23 -110t-10.5 -69q0 -17 6 -20t40 -3q51 0 58.5 4.5t-1.5 30.5z" />
    <glyph glyph-name="aacute" unicode="&#xe1;" horiz-adv-x="831" 
d="M350 1725q25 33 55 65.5t47 58.5q25 25 41.5 35.5t25.5 10.5q12 0 27.5 -8t29.5 -18.5t24 -22t10 -19.5q0 -9 -8 -24.5t-20 -33t-25.5 -33t-25.5 -23.5q-17 0 -46.5 -26.5t-54.5 -51.5q-34 -26 -58 -41.5t-33 -15.5q-17 0 -31.5 20t-14.5 37q0 9 15.5 36.5t41.5 53.5z
M293 1385q9 25 28.5 42t62.5 26q16 9 31.5 10.5t24.5 1.5q14 -3 23 -12q8 -5 25 -58.5t36.5 -129.5t37 -162.5t26.5 -158.5q8 -56 16.5 -108.5t20.5 -109t27.5 -119.5t37.5 -139q4 -26 10 -58.5l12 -65.5l12 -63t11 -51q0 -43 6 -79t6 -79v0q-5 -13 -26 -25.5t-45 -21.5
t-46.5 -12t-30.5 2q-9 4 -18.5 29t-18.5 58.5t-14 71.5t-5 68q0 9 -9 60.5t-25 120.5q-13 54 -22 84t-22 44t-34 16.5t-58 2.5q-69 9 -85.5 1t-16.5 -24q-18 -33 -69 -340l-16.5 -79.5t-16.5 -45.5t-33 -13t-51 -4t-49 4t-26 13q0 9 8.5 82.5t25.5 167.5q12 68 23 124.5
t23 108.5t25 102.5t31 106.5l26.5 93l28.5 104t26 104.5t21 94.5q16 75 30.5 136.5t14.5 78.5zM430 762q-3 101 -12 170l-22 170q-5 4 -16.5 -29t-24 -82t-23.5 -103t-15 -91q0 -26 6.5 -30.5t49.5 -4.5h57z" />
    <glyph glyph-name="acircumflex" unicode="&#xe2;" horiz-adv-x="797" 
d="M194 1672l64.5 47.5t48.5 31.5q51 42 139 9.5t190 -133.5q85 -85 33 -102q-43 -26 -74 -16t-73 61q-34 25 -60 48t-42 32q-13 4 -21.5 5t-17.5 -2t-23 -12l-39 -25l-56 -35t-46 -34q-34 -26 -55.5 -26t-46.5 26q-17 16 -19 26.5t7 19.5q0 16 28.5 39t62.5 40zM307 1412
q9 9 30.5 15.5t38.5 6.5q16 9 31.5 10.5t24.5 1.5q12 4 30 -30.5t38.5 -103t41 -166.5t38.5 -221l50 -265.5l51 -255.5q12 -35 22.5 -89t16.5 -108t8 -98t-2 -56q-5 -13 -23.5 -25t-42 -19.5t-46 -8.5t-34.5 7q-5 4 -9.5 9t-10.5 23t-12 55t-14 106q0 42 -13 108.5
t-22 117.5q-13 46 -22 71.5t-21.5 37.5t-33.5 14t-58 2q-69 9 -86.5 5.5t-26.5 -28.5q0 -17 -15 -85t-31 -152q-17 -94 -26.5 -156.5t-18.5 -71.5t-33 -13t-51 -4t-49 4t-26 13q-4 8 2.5 64t18.5 128l25 145.5t22 116.5l12 46l18.5 67l23 78l25.5 80l26.5 95l28.5 108
l26.5 108.5t21.5 96.5l31.5 141t24.5 75zM432 743l-23 170l-23 170q-5 4 -16 -35t-23 -92.5t-20 -105t-8 -72.5q0 -26 5.5 -30.5t39.5 -4.5h68z" />
    <glyph glyph-name="atilde" unicode="&#xe3;" horiz-adv-x="812" 
d="M319 1414q9 9 26 21.5t43 12.5q68 18 102 0q0 -5 12 -60l27.5 -125l30.5 -137t20 -96q9 -34 16 -80t7 -79q4 -22 12 -59l17 -82.5l19 -97l19 -101.5q25 -94 42.5 -175.5t27 -143t12.5 -99.5t-1 -46q-9 -13 -30 -25t-45 -19.5t-44.5 -9t-28.5 7.5q-9 9 -23 58.5t-23 134.5
q-5 21 -15 68.5t-22 99l-23 97t-19 63.5q0 16 -17 25t-85 9q-43 0 -65 -1.5t-34.5 -23.5t-21.5 -76t-25 -159q-18 -85 -26 -130.5t-12.5 -66.5t-8 -27.5t-11.5 -14.5q-9 -9 -33 -13t-50.5 -4t-48.5 4t-26 13q0 9 8.5 82.5t25.5 167.5q12 68 23.5 124.5t23.5 109.5t28 106
t38 113l26.5 96.5l28.5 111.5t26 112.5l21 98.5q16 84 31.5 149.5t24.5 65.5zM434 826q0 33 -6 84.5t-6 85.5q-9 42 -11.5 71.5t-11.5 29.5h-11q-14 -71 -23 -113q-9 -51 -21.5 -98t-12.5 -72q-9 -43 -1.5 -50t58.5 -7q42 0 48.5 9t-2.5 60zM196 1626q4 18 12.5 26t29.5 16
q36 14 88.5 6t113.5 -34q13 -9 31.5 -16t30.5 -12q18 -8 26 -8t34 5q25 4 31 6t9 11q9 10 7 31q2 8 3 14t5 7q3 4 23 2t25 -5t5.5 -32.5t-4.5 -43.5q-9 -23 -29 -44.5t-50 -33.5q-17 -7 -35 -6t-62 6q-27 3 -45.5 8t-58.5 25l-48 20t-40 15q-19 7 -23 6.5t-10 -9.5
q-9 -10 -21 -38q-7 -22 -11.5 -25t-25.5 -6q-21 -4 -23.5 -1.5t-2.5 7.5q-2 10 2.5 47t12.5 56z" />
    <glyph glyph-name="adieresis" unicode="&#xe4;" horiz-adv-x="804" 
d="M202 1607q-17 9 -17 35.5t17 43.5q9 16 23.5 23.5t57.5 -1.5q42 0 56 -4.5t23 -29.5q9 -17 4.5 -28.5t-4.5 -27.5q-9 -17 -23 -20t-56 -3q-26 0 -53.5 1.5t-27.5 10.5zM452 1618q0 25 6 53t6 37h67q51 0 71 -11.5t20 -44.5q0 -34 -16 -45.5t-75 -11.5q-51 0 -65 3t-14 20
zM293 1380q9 25 23 42t57 26q51 16 62.5 16t28.5 -16q8 -9 21.5 -47t29.5 -98t32.5 -136.5t29.5 -160.5q12 -85 25 -155.5t26.5 -136.5t28.5 -132l33 -142q16 -69 26.5 -136t15 -121t3 -89t-9.5 -39q-13 -13 -33 -24t-39 -17t-34 -7.5t-19 3.5q-9 8 -17.5 29.5t-14.5 50
t-10 61.5t-4 63q0 33 -21 113l-46 182q-9 25 -15 38.5t-17 19t-30 4t-52 -5.5q-39 0 -60 -2t-33 -9.5t-18 -23.5t-14 -45q-9 -43 -17 -110.5t-17 -126.5q-13 -64 -23 -102.5t-24 -57.5t-34.5 -22.5t-53.5 1.5q-34 0 -47 0.5t-22 9.5q-5 8 2 68t19.5 138.5t28.5 160t29 132.5
q9 42 30.5 116l38.5 134q33 84 62.5 221.5zM441 769q0 9 -7 59.5l-16 110.5q-9 68 -22 158q0 9 -6 -4.5t-6 -29.5q-13 -35 -25.5 -84t-21.5 -94t-14.5 -78.5t-5.5 -37.5q0 -9 11 -10.5t45 -1.5q33 0 50.5 1.5t17.5 10.5z" />
    <glyph glyph-name="aring" unicode="&#xe5;" horiz-adv-x="797" 
d="M315 1613q0 25 6 42t6 26q9 9 21.5 9.5t46.5 0.5q51 0 76.5 -11.5t25.5 -44.5q0 -43 -21.5 -50t-80.5 -7q-60 0 -70 4.5t-10 30.5zM224 1069l44.5 205.5t27.5 102.5t25.5 38.5t39.5 15.5q42 9 69 9t44 -9q8 -9 26.5 -87t39 -174l37.5 -182.5l22 -111.5q0 -34 18 -128
t61 -280q16 -81 28.5 -155.5t18.5 -133t6 -96t-8 -45.5q-5 -9 -24 -17t-41 -13.5t-42 -6.5t-28 3q-9 0 -22.5 55t-22.5 149q-5 21 -13.5 63.5l-18 91.5l-19.5 96.5t-18 77.5q-9 9 -26 15.5t-76 6.5q-39 0 -59.5 -1t-31 -7t-14.5 -17t-8 -32q-9 -35 -22.5 -96t-26 -123.5
t-21.5 -113t-9 -62.5q0 -26 -25.5 -47.5t-76.5 -21.5q-68 2 -68 22q-5 8 4 81t24 164.5t32.5 178t30.5 121.5q9 25 24 89.5t32 124.5q25 59 41.5 133zM418 854q0 51 -6 103t-6 78q0 16 -11 45q-5 0 -15 -26t-22 -68t-23.5 -97t-19.5 -114q-9 -26 -1.5 -30.5t58.5 -4.5
q21 0 32 1.5t15.5 12t3.5 34t-5 66.5z" />
    <glyph glyph-name="ccedilla" unicode="&#xe7;" horiz-adv-x="790" 
d="M15 813q4 121 28.5 226t65 185.5t96 132.5t121.5 67q30 9 78.5 14.5t96 6.5t83.5 -1t42 -6q4 -11 1.5 -29.5t-8.5 -37.5t-16 -35t-19 -20q-10 -10 -27.5 -12t-26.5 -2h-37.5h-57.5q-41 -10 -66.5 -26t-55.5 -56q-51 -57 -84 -144t-45.5 -189t-4 -209.5t39.5 -203.5
q61 -183 138 -246t200 -12q61 20 91 16.5t60 -43.5q9 -21 11 -33t2 -21q0 -11 -27 -29t-64 -36t-76.5 -31t-63.5 -13q-82 -10 -97.5 -44.5t56.5 -64.5q40 -20 72 -65.5t23 -96.5q0 -30 -18.5 -73t-48.5 -64q-15 -9 -44 -18.5t-62 -17.5t-67 -13t-58 -5q-41 0 -55 3.5
t-14 23.5q0 62 23.5 81t85.5 28q71 10 101 24t21 44q0 20 -40 41q-92 30 -114 76.5t19 127.5q20 40 18 49.5t-32 30.5q-57 45 -103.5 125t-79.5 178t-50 206.5t-11 210.5z" />
    <glyph glyph-name="egrave" unicode="&#xe8;" horiz-adv-x="658" 
d="M75 1775q0 8 14 23.5t31 32.5q8 8 21.5 14.5t22.5 6.5q8 0 28.5 -14t37.5 -30q16 -25 45 -56.5t54 -64.5q24 -25 39.5 -47.5t15.5 -30.5q0 -5 -5.5 -16t-12.5 -22.5t-14.5 -19.5t-10.5 -8q-9 0 -29.5 15t-36.5 40q-25 16 -61.5 45t-60.5 54q-33 24 -55.5 46.5t-22.5 31.5
zM9 1355q8 24 21.5 40.5t22.5 25.5q16 8 73.5 10t181.5 2q87 0 134 -0.5t69.5 -3t28.5 -6.5t11 -12v-39.5v-38.5q0 -17 -3 -26t-20 -14.5t-52.5 -8t-101.5 -5.5q-108 0 -150 -3.5t-50 -19.5v-132q-5 -46 -5.5 -71t10 -35.5t35.5 -10t71 5.5q74 0 98.5 -1t33.5 -9
q8 -9 12 -29.5t4 -42.5t-4 -40.5t-12 -21.5q-9 -9 -46 -15t-86 -6q-42 -5 -65 -12.5t-33 -37.5t-11.5 -93t-1.5 -178q0 -67 1.5 -125.5t4 -101.5t6.5 -92q3 -5 36.5 -7t79 -2t95.5 2t88 7q41 8 55.5 2t31.5 -14q8 -9 12 -29.5t4 -42t-4 -39.5t-12 -21q-9 -9 -62 -17
t-136 -16q-108 -5 -165.5 -6.5t-87 1.5t-41 12t-27.5 26q-17 12 -26 21.5t-13 33.5t-4.5 69t-0.5 129q0 41 -0.5 110t-1.5 152t-3 172.5t-5 173.5q0 132 0.5 211t0.5 123.5t2 63.5t7 32z" />
    <glyph glyph-name="eacute" unicode="&#xe9;" horiz-adv-x="672" 
d="M293 1663l46 47t55 64q33 41 55.5 59t31.5 18q12 3 28.5 -7t31 -25t23 -31t5.5 -24l-43 -45l-133.5 -108.5t-69.5 -51t-31 -7.5t-20 23q-17 33 -14.5 44t35.5 44zM29 1366q16 16 30.5 35t23.5 19q8 8 79.5 10t163.5 2q132 0 178 -2t55 -10q8 -9 9 -30.5t1 -45.5
q0 -21 -3 -32.5t-19 -17.5t-51.5 -9.5t-101.5 -6.5q-75 0 -132 -2t-57 -10q-9 0 -15 -33t-6 -99q0 -50 1 -77t12.5 -39t36.5 -11.5t71 5.5q49 3 77 2.5t43 -9t19 -25.5t4 -46q0 -30 -4 -47t-19 -26t-43 -11.5t-77 -2.5q-42 -5 -65 -12.5t-33 -37.5t-11.5 -93t-1.5 -178
v-162.5t0.5 -97.5t3 -47t7.5 -12q8 -9 66 -9t133 9q74 0 126.5 -2t61.5 -10q8 -5 12 -24.5t4 -42.5t-4 -42.5t-12 -22.5q-9 -9 -62 -17t-136 -16q-112 -5 -170.5 -6.5t-88 1.5t-41.5 12t-32 26q-17 16 -26 29.5t-12 47.5t-1.5 100t6.5 187q0 66 -2 147t-4.5 164t-4 160.5
t-1.5 136.5q-5 107 -7 166t-0.5 90t6 44.5t13.5 30.5z" />
    <glyph glyph-name="ecircumflex" unicode="&#xea;" horiz-adv-x="672" 
d="M72 1648q8 8 39 31.5l67 49.5t69 47.5t46 26.5l13.5 5t14.5 -1t25.5 -12l46.5 -25q29 -17 65 -44t68 -55.5t54 -53t22 -36.5q0 -17 -22 -25t-55 -8q-9 0 -36.5 16.5t-51.5 49.5l-62 45.5t-37 21.5q-9 3 -28.5 -4t-44.5 -22t-52.5 -34.5t-51.5 -39.5q-25 -25 -45 -26.5
t-44 15.5q-25 16 -25 38.5t25 39.5zM39 1383q8 16 21.5 29.5t22.5 13.5q8 8 79.5 10t163.5 2q95 3 146 4t74 -7.5t24.5 -28.5t-1.5 -56q0 -21 -3 -32.5t-19.5 -17.5t-52 -9.5t-101.5 -6.5q-75 0 -132 -2t-57 -10q-9 0 -15 -33t-6 -99q0 -50 1.5 -77t13 -39t36.5 -11.5
t71 5.5q58 0 85 -1t36 -9q8 -5 12 -26.5t5 -46.5t-1 -46.5t-5 -24.5q-9 0 -46 -5.5t-86 -5.5q-42 -5 -65 -12.5t-33 -37.5t-11.5 -93t-1.5 -178q0 -67 -0.5 -125.5t0 -101.5t3 -67.5t7.5 -24.5q3 -5 36.5 -7t79 -2t95.5 2t88 7q41 8 56 2t32 -14q8 -9 12 -29.5t4 -42
t-4 -39.5t-12 -21q-9 -9 -62 -17t-136 -16q-150 -5 -226 -7t-108.5 55.5t-35.5 205t-6 442.5v357t2 187t6.5 77.5t13.5 29.5z" />
    <glyph glyph-name="edieresis" unicode="&#xeb;" horiz-adv-x="658" 
d="M113 1631q0 16 6.5 26t15.5 19h66q49 0 57.5 -6t8.5 -39q8 -42 -10 -54t-67 -12q-42 0 -64 20.5t-13 45.5zM356 1621q0 16 5 31t5 24q3 3 22.5 4.5t42.5 0.5t43 -5t25 -12q16 -9 16 -40.5t-16 -47.5q-17 -9 -57 -14.5t-64 3.5q-9 8 -15.5 19.5t-6.5 36.5zM13 892
q-5 177 -6.5 274.5t4.5 146t19.5 65t38.5 33.5q12 8 23.5 12t36 6.5t69.5 3t124 0.5q123 0 178 -2t55 -10q8 -9 12 -26t5 -35.5t-1 -35t-5 -24.5q0 -9 -34.5 -15t-142.5 -6q-79 0 -122 -1.5t-62.5 -15t-22.5 -45.5t-3 -93q0 -46 1 -71t12.5 -35.5t36.5 -10t71 5.5
q74 0 99 -1t34 -9q8 -9 12 -29.5t4 -42.5t-4 -40.5t-12 -21.5q-9 -9 -46.5 -15t-86.5 -6q-42 -5 -65 -12.5t-33 -37.5t-11 -93t-1 -178v-125.5t0.5 -101.5t3 -67.5t7.5 -24.5q3 -5 36.5 -7t78.5 -2t95 2t88 7q66 8 83 -10.5t17 -67.5q0 -30 -4.5 -47.5t-26 -28t-68.5 -15.5
t-134 -8h-155h-87q-17 0 -34 13t-33 30q-13 12 -19.5 21.5t-9.5 28t-3.5 53t-0.5 97.5q0 36 -0.5 103t-1.5 151t-3.5 178t-5.5 186z" />
    <glyph glyph-name="igrave" unicode="&#xec;" horiz-adv-x="541" 
d="M114 1692q-85 66 -99.5 95t23.5 68l35.5 17.5t27.5 8.5q9 0 54.5 -41t121.5 -135q56 -57 62.5 -76t-11.5 -37q-19 -29 -51 -29t-50 29q-10 9 -42.5 35t-70.5 65zM240 1176q9 132 11.5 187t12.5 65q9 9 32 13.5t47.5 4.5t45.5 -4.5t27 -13.5q4 -6 6 -57.5t0.5 -126.5
t-6 -164t-13.5 -169q0 -33 -2.5 -85.5t-5 -114t-4 -127.5t-1.5 -127q-6 -62 -10.5 -121.5t-9 -108t-9 -81.5t-8.5 -42q-10 -66 -51 -84t-87 21q-6 9 -8.5 20t-3.5 35t-1 64.5v107.5v103.5t1 116t3.5 116.5t8.5 105q4 47 8.5 106t8 122t6 124.5t2.5 114.5z" />
    <glyph glyph-name="iacute" unicode="&#xed;" horiz-adv-x="443" 
d="M123 1702q28 18 61 51t52 62l46.5 45.5t28.5 17.5q9 0 23.5 -10.5t29.5 -25t25.5 -29t10.5 -23.5q0 -10 -17.5 -33.5t-45.5 -41.5q-29 -29 -68.5 -63t-57.5 -52q-39 -39 -67.5 -41t-46.5 17q-19 18 -16 48.5t42 77.5zM48 1160q4 80 7 131.5t6 81.5t8.5 44t15.5 20
q9 4 29.5 6t43 1t41 -5.5t24.5 -13.5q9 -10 11 -78t2 -238q-6 -62 -10.5 -119t-7.5 -102l-5 -73.5t-2 -32.5q0 -10 -2.5 -41.5t-5 -77.5t-4 -103.5t-1.5 -118.5q-6 -118 -11 -194.5t-13.5 -123t-20.5 -68t-30 -30.5q-19 -19 -55.5 -11.5t-45.5 36.5q-6 4 -8 88t-1 198
t6.5 231.5t15.5 188.5q0 33 1.5 80.5t4 101.5l5 111.5t2.5 110.5z" />
    <glyph glyph-name="icircumflex" unicode="&#xee;" horiz-adv-x="499" 
d="M18 1606q9 9 50.5 41t88.5 61q46 38 87.5 56.5t51.5 18.5q23 0 73 -28.5t101 -66.5t90 -75.5t39 -55.5q0 -19 -24 -35t-52 -16q-61 34 -89 63q-43 42 -67.5 63.5t-44.5 24.5t-42 -10.5t-59 -40.5q-39 -19 -70 -42.5t-31 -32.5q-10 -10 -47 -8t-55 21q-19 18 -19 30.5
t19 31.5zM195 1102q0 66 2 125.5t5 104.5t8 72t11 27q4 9 24 13.5t44 4.5t44 -4.5t26 -13.5q9 -10 11.5 -72.5t0 -153.5t-8.5 -198t-15 -206q0 -33 -3 -81.5l-6.5 -102.5t-8 -111.5l-8.5 -108.5q-6 -109 -11 -178.5t-11.5 -111.5t-16 -61t-23.5 -28q-29 -10 -61 7.5
t-41 56.5q-6 9 -6.5 113t2 229.5t7 234.5t10.5 129q4 51 7 94.5t7.5 100.5t10.5 119z" />
    <glyph glyph-name="idieresis" unicode="&#xef;" horiz-adv-x="433" 
d="M23 1604q-19 9 -19 39t19 49q9 9 29.5 15t59.5 -3q46 0 54 -8.5t8 -54.5q0 -39 -8 -44.5t-54 -5.5q-29 0 -54.5 1.5t-34.5 11.5zM275 1628v25v26q19 38 76 38q56 0 72 -19t16 -57q0 -29 -22.5 -44.5t-78.5 -5.5q-47 0 -55 4t-8 33zM136 1111q0 66 2 125.5t5 104.5t8 72
t11 27q4 9 22.5 13.5t41 5.5t43.5 -1t31 -6q9 -6 13.5 -19.5t6 -43t-0.5 -78t-6 -123.5q0 -53 -2.5 -110t-6 -109t-8 -94t-8.5 -65q0 -29 -2.5 -74.5t-5 -100t-4 -114t-1.5 -115.5q-6 -109 -11 -178.5t-13.5 -111.5t-20.5 -61t-30 -28q-19 -10 -32.5 -8t-31.5 21
q-19 9 -30 26.5t-20 36.5q0 9 2 112.5t5 225t8 223t11 107.5q0 4 1.5 33t4.5 74.5t7.5 105.5t10.5 127z" />
    <glyph glyph-name="ntilde" unicode="&#xf1;" horiz-adv-x="909" 
d="M634 963q-5 144 -7 235.5t-1 144.5t6 74.5t14 26.5q8 4 27.5 5.5t40.5 0.5t38.5 -5.5t22.5 -12.5q4 -5 11.5 -217t14 -466.5t10 -468t-0.5 -221.5q-9 -18 -35 -32.5t-70 -14.5q-18 -5 -29 -5.5t-20.5 10.5t-22.5 37.5t-34 75.5q-27 44 -59 120l-58 138l-53.5 124
t-52.5 99q-23 43 -57 99.5l-67 107.5t-58 86t-29 35v-84v-89.5v-107.5q4 -62 6.5 -126.5t3.5 -121.5t1.5 -103t0.5 -72q0 -45 -1 -68.5t-7 -35.5t-18 -16.5t-33 -8.5q-27 0 -50 1.5t-32 10.5q-9 8 -16 95.5t-10 217.5t-3 284t5 295q0 114 2 178t6 97t11 44.5t16 20.5
t26.5 10.5t44.5 1.5q44 0 65.5 -19.5t39.5 -98.5q17 -53 71.5 -160t151.5 -239q17 -27 39.5 -68l46 -86l44.5 -88.5l35 -73.5q0 -18 7 -27t16 -9q0 -5 0 31.5v101.5v152.5v184.5zM196 1626q4 18 12.5 26t29.5 16q36 14 88.5 6t113.5 -34q13 -9 31.5 -16t30.5 -12
q18 -8 26 -8t34 5q25 4 31 6t9 11q9 10 7 31q2 8 3 14t5 7q3 4 23 2t25 -5t5.5 -32.5t-4.5 -43.5q-9 -23 -29 -44.5t-50 -33.5q-17 -7 -35 -6t-62 6q-27 3 -45.5 8t-58.5 25l-48 20t-40 15q-19 7 -23 6.5t-10 -9.5q-9 -10 -21 -38q-7 -22 -11.5 -25t-25.5 -6
q-21 -4 -23.5 -1.5t-2.5 7.5q-2 10 2.5 47t12.5 56z" />
    <glyph glyph-name="ograve" unicode="&#xf2;" horiz-adv-x="844" 
d="M192 1769q0 9 8.5 24.5t18.5 25.5l50 26q14 4 51 -28t76 -74.5t69.5 -83.5t30.5 -55q0 -15 -12.5 -26t-30.5 -16t-37 -1.5t-33 18.5q0 9 -32 36t-70 66q-39 28 -64 53t-25 35zM41 1149q28 94 69.5 153t108.5 88q38 18 66 26t85 -1q161 -10 244 -92t122 -262q4 -34 8 -64
t7 -71.5t2.5 -101.5t-4.5 -154q0 -119 -4 -197t-13 -134t-26.5 -98t-45.5 -89q-29 -39 -76.5 -68.5t-101.5 -46t-110 -17.5t-103 19q-57 9 -108 56t-69 95q-24 51 -39 94.5t-23 100.5t-10.5 138t-2.5 210q0 113 -0.5 181.5t2 110.5t7.5 68.5t15 55.5zM584 746
q0 108 -5.5 187.5t-18.5 136.5t-34.5 94t-54.5 61q-10 9 -41.5 17.5t-59.5 8.5q-48 9 -65.5 0.5t-35.5 -26.5q-39 -29 -53.5 -76t-23.5 -113q-15 -67 -18 -174t2 -217.5t16.5 -205t26.5 -136.5q0 -19 15.5 -45t34.5 -44q18 -19 35.5 -21.5t65.5 -2.5q66 0 107 24.5t65 87.5
t33 170.5t9 273.5z" />
    <glyph glyph-name="oacute" unicode="&#xf3;" horiz-adv-x="823" 
d="M330 1609q0 9 26 44t60.5 75.5t68 76t48.5 45.5q18 9 32 5.5t43 -31.5q38 -19 29.5 -47.5t-55.5 -66.5q-19 -10 -50.5 -40l-49.5 -48q-29 -29 -54 -40t-34 -11q-19 0 -41.5 9.5t-22.5 28.5zM15 764q-10 284 38.5 433.5t162.5 197.5q57 28 104 29t124 -17q42 -10 72 -21
t54.5 -29t48 -45t52.5 -69q18 -19 31.5 -63l32.5 -101q4 -43 8 -76t6 -73.5t1.5 -96.5t-4.5 -146q0 -208 -17 -320t-45 -159q-48 -85 -126 -131.5t-191 -46.5q-95 0 -143.5 22.5t-95.5 79.5q-34 42 -56 96t-34.5 129t-17.5 174.5t-5 232.5zM520 1180q-10 18 -34 35.5
t-42 27.5q-19 9 -46 17.5t-55 8.5q-105 0 -144 -164t-20 -494q4 -123 14.5 -203.5t31.5 -128t55 -66t87 -18.5q57 -10 97 15t69 73q14 28 23 63.5t15 87.5t8.5 125.5t2.5 178.5q4 99 2 168t-10 118.5t-22 85.5t-32 70z" />
    <glyph glyph-name="ocircumflex" unicode="&#xf4;" horiz-adv-x="844" 
d="M105 1630q0 4 30 28.5t70 52.5t80 52.5t60 30.5l20.5 13t15 3.5t22.5 -7.5l43 -21q28 -20 61 -47t61 -54t47.5 -51t19.5 -38q0 -10 -17.5 -29t-45.5 -9l-75 51q-43 38 -67.5 57t-45 21.5t-42.5 -11.5t-60 -42q-39 -19 -78 -35t-48 -16q-29 0 -45 16t-6 35zM3 670
q-9 312 41.5 494t173.5 239q38 18 65 26t75 -1q123 -10 195 -54t120 -148q23 -43 37.5 -81t23.5 -91.5t12.5 -131.5t3.5 -201q0 -119 -3.5 -197t-12.5 -132.5t-23.5 -94t-37.5 -81.5q-34 -72 -100 -116t-143 -59t-154 2.5t-133 70.5q-34 33 -58.5 79.5t-41 112.5
t-26.5 155.5t-14 208.5zM559 1087q-19 66 -53.5 110t-72.5 54q-67 18 -108 15.5t-69 -40.5q-20 -20 -32.5 -41.5t-21 -52t-13.5 -75t-9 -110.5q-6 -53 -6.5 -141.5t2 -179.5t7 -167.5t10.5 -104.5q18 -48 39 -84t50 -54q28 -19 83 -19t94 19q38 18 62 50t38.5 89.5t20 148.5
t5.5 229q0 85 -1 142t-4 96t-7.5 65.5t-13.5 50.5z" />
    <glyph glyph-name="odieresis" unicode="&#xf6;" horiz-adv-x="877" 
d="M204 1611q-10 18 -5 29.5t5 21.5q0 9 18 11t57 2q57 0 71 -13t5 -51q-10 -19 -19.5 -27t-56.5 2q-48 0 -61.5 3t-13.5 22zM506 1586q-48 -10 -55.5 -5.5t-7.5 43.5q0 47 7.5 53.5t55.5 -2.5q57 0 67 -6.5t10 -44.5q0 -29 -10 -33.5t-67 -4.5zM51 1119q28 123 76.5 192
t125.5 98q47 14 103.5 14t110.5 -12.5t101.5 -38t76.5 -63.5q33 -39 56 -84.5t37.5 -109.5t19 -151.5t0.5 -210.5q0 -200 -10.5 -324.5t-38.5 -181.5q-39 -105 -115 -155.5t-189 -59.5q-34 -6 -55 -6t-37.5 3t-32.5 10.5l-39 17.5q-62 28 -103.5 74.5t-66.5 124.5t-35 195.5
t-10 288.5v142t2.5 98.5t7.5 73t15 65.5zM583 1068q-19 66 -54 112t-73 65q-20 9 -44.5 13.5t-48.5 4.5t-43 -4.5t-28 -13.5q-29 -19 -56 -85t-45 -142q-6 -39 -6.5 -133.5t2 -199t7 -194t10.5 -117.5q18 -53 35.5 -87t38.5 -54.5t48 -28t66 -7.5q76 -10 124.5 45t77.5 169
q0 14 1.5 45.5t4 73.5t5 93t2.5 104q0 85 -0.5 140t-3 91.5t-7 61t-13.5 48.5z" />
    <glyph glyph-name="otilde" unicode="&#xf5;" horiz-adv-x="844" 
d="M51 1119q28 123 76.5 192t125.5 98q47 14 103.5 14t110.5 -12.5t101.5 -38t76.5 -63.5q33 -39 56 -84.5t37.5 -109.5t19 -151.5t0.5 -210.5q0 -200 -10.5 -324.5t-38.5 -181.5q-39 -105 -115 -155.5t-189 -59.5q-34 -6 -55 -6t-37.5 3t-32.5 10.5l-39 17.5
q-62 28 -103.5 74.5t-66.5 124.5t-35 195.5t-10 288.5v142t2.5 98.5t7.5 73t15 65.5zM583 1068q-19 66 -54 112t-73 65q-20 9 -44.5 13.5t-48.5 4.5t-43 -4.5t-28 -13.5q-29 -19 -56 -85t-45 -142q-6 -39 -6.5 -133.5t2 -199t7 -194t10.5 -117.5q18 -53 35.5 -87t38.5 -54.5
t48 -28t66 -7.5q76 -10 124.5 45t77.5 169q0 14 1.5 45.5t4 73.5t5 93t2.5 104q0 85 -0.5 140t-3 91.5t-7 61t-13.5 48.5zM163 1626q4 18 12.5 26t29.5 16q36 14 88.5 6t113.5 -34q13 -9 31.5 -16t30.5 -12q18 -8 26 -8t34 5q25 4 31 6t9 11q9 10 7 31q2 8 3 14t5 7
q3 4 23 2t25 -5t5.5 -32.5t-4.5 -43.5q-9 -23 -29 -44.5t-50 -33.5q-17 -7 -35 -6t-62 6q-27 3 -45.5 8t-58.5 25l-48 20t-40 15q-19 7 -23 6.5t-10 -9.5q-10 -10 -21 -38q-7 -22 -11.5 -25t-25.5 -6q-21 -4 -23.5 -1.5t-2.5 7.5q-2 10 2.5 47t12.5 56z" />
    <glyph glyph-name="divide" unicode="&#xf7;" horiz-adv-x="714" 
d="M247 731q97 0 179 2t100 2h28.5h22.5q6 0 12.5 -0.5t6.5 -3.5q3 -3 6 -20t6 -38t5 -38.5t2 -20.5q-7 -8 -14 -9q-15 -4 -108 -7t-199.5 -4t-193.5 -1t-90 3q-4 3 -4.5 18.5t-0.5 50.5q0 22 3.5 34.5t26 18.5t72 8t140.5 5zM247 1016q0 34 5.5 53t22.5 33q25 22 57.5 11
t46.5 -41q9 -17 13.5 -30.5t4.5 -43.5q0 -39 -4.5 -47t-13.5 -17t-19.5 -13.5t-32.5 -4.5q-53 0 -66.5 19t-13.5 81zM236 312q0 34 5.5 53t22.5 33q25 22 57.5 11t46.5 -41q9 -17 13.5 -30.5t4.5 -43.5q0 -39 -4.5 -47t-13.5 -17t-19.5 -13.5t-32.5 -4.5q-53 0 -66.5 19
t-13.5 81z" />
    <glyph glyph-name="ugrave" unicode="&#xf9;" horiz-adv-x="909" 
d="M148 1857q0 11 16 22.5t28 23.5q21 21 34.5 25t25.5 4q39 -23 61 -44q21 -22 51.5 -61.5t52.5 -73.5q27 -29 42 -47.5t19 -32.5t-0.5 -26.5t-14.5 -29.5q-22 -22 -39 -21t-51 36q-6 5 -19.5 18l-30.5 28.5l-35.5 31.5t-35.5 28q-45 34 -74.5 70.5t-29.5 48.5zM44 808
q0 117 -0.5 226t0.5 193t4.5 137t9.5 59q0 11 15 18.5t60 -3.5q27 0 42.5 -9.5t22.5 -63.5t8.5 -169.5t1.5 -328.5q0 -192 2 -305t6 -176t10 -89t12 -43q17 -29 50.5 -48.5t74.5 -28t83.5 -5t76.5 21.5q27 22 44 50.5t26 98.5t9.5 200t-4.5 355q0 202 1 311.5t7.5 160.5
t22 59.5t44.5 8.5q21 0 48 -2t27 -13q5 -6 14.5 -100t18 -222t12.5 -263t-1 -225q0 -258 -37 -391.5t-127 -178.5l-48.5 -20t-40.5 -12t-49 -3.5t-73 6.5q-146 0 -222.5 43.5t-121.5 121.5q-12 17 -17.5 45.5t-8.5 94.5t-3 181.5v307.5z" />
    <glyph glyph-name="uacute" unicode="&#xfa;" horiz-adv-x="877" 
d="M445 1792q45 45 76.5 90.5t43.5 45.5q11 11 21.5 12.5t22.5 1.5q5 0 20 -10t30.5 -22.5t28.5 -25t13 -17.5q0 -18 -43 -62t-97 -89t-102 -77t-58 -26q-12 0 -21.5 8.5t-9.5 20.5q-6 10 -8 20t5 25.5t25.5 40.5t52.5 64zM25 308q-6 33 -6.5 209t4 375.5t12.5 364t20 176.5
q5 10 27 15.5t47 5.5t47.5 -5.5t28.5 -15.5q5 0 8 -47.5t4.5 -126t2 -181.5t0.5 -215q-6 -198 -6.5 -309.5t2.5 -170.5t8.5 -80.5t11.5 -38.5q21 -22 44.5 -41t45.5 -19q90 -35 154.5 -14t99.5 89q10 22 15.5 59t7 138.5t-0.5 290.5t-7 516q0 61 1 94.5t7.5 49t22 18.5
t44.5 3q34 11 54.5 3.5t20.5 -18.5q10 -12 17.5 -190.5t10.5 -395t0 -406.5t-13 -223q-12 -29 -33 -58.5t-46.5 -56.5t-52 -48t-48.5 -31q-39 -12 -95 -13t-113.5 5.5t-110.5 20t-86 31.5q-57 34 -93 98t-57 142z" />
    <glyph glyph-name="ucircumflex" unicode="&#xfb;" horiz-adv-x="834" 
d="M104 1640q-12 10 -13.5 20t11 25.5t42.5 40.5t81 64q45 34 91.5 54.5t58.5 20.5q45 11 101 -26t124 -93q67 -57 80.5 -90.5t-20.5 -44.5q-18 -12 -31.5 -17t-30.5 1t-41 24t-63 52l-64 62t-40 28q-39 -35 -60 -46q-22 -12 -59 -44l-61 -31q-35 -35 -53.5 -35t-52.5 35z
M0 846q11 281 14 427t15 158q0 11 26.5 13t48.5 2q27 0 42.5 -10t22.5 -64.5t9 -173t2 -337.5q5 -254 10 -384.5t19 -189.5t42 -71t79 -29q156 -45 225 90q10 27 15.5 54t7 118t-1 279t-7.5 537q0 67 1 103.5t7.5 53.5t22 20.5t44.5 3.5q34 11 54.5 3.5t20.5 -18.5
q10 -12 17.5 -190.5t10.5 -395t0 -406.5t-13 -223q-22 -68 -80 -120.5t-114 -73.5q-51 -12 -113.5 -12t-122.5 11.5t-113.5 34t-86.5 56.5q-39 33 -60.5 61.5t-31 97.5t-11 201t-1.5 374z" />
    <glyph glyph-name="udieresis" unicode="&#xfc;" horiz-adv-x="877" 
d="M184 1673q3 32 15 44q0 11 23 21t68 10q56 0 65.5 -7.5t9.5 -52.5q0 -57 -25 -73.5t-81 -16.5q-22 0 -48.5 26.5t-26.5 48.5zM499 1612q-35 0 -45.5 27.5t1.5 62.5q0 21 15 33.5t60 12.5q112 0 90 -90q-12 -35 -44 -46.5t-77 0.5zM20 818q0 123 1.5 232.5t4.5 192.5
t5.5 133.5t2.5 56.5q5 5 27 7t47 0.5t47.5 -7t28.5 -15.5q5 -6 8 -37t4.5 -96t2 -168.5t0.5 -254.5q-6 -186 -8.5 -294t-1 -167t7.5 -82.5t18 -40.5q21 -57 51.5 -75t98.5 -29q67 -12 120 9t75 66q10 33 18 109t12 184t4 243t-5 288q-6 95 -9 158.5t-3 102.5t3 58.5t9 25.5
q5 10 22.5 15.5t38.5 7t41.5 -0.5t32.5 -7q17 -12 30 -172.5t19 -361.5t2.5 -387.5t-20.5 -247.5q-6 -34 -22 -70t-37 -67t-45 -55t-46 -34q-57 -35 -126 -37.5t-159 8.5q-113 21 -169.5 61.5t-101.5 118.5q-12 17 -17.5 39t-8.5 83.5t-3 179.5v327z" />
    <glyph glyph-name="space" unicode=" " horiz-adv-x="507" 
 />
    </font>
</defs>
</svg>
